<svg width="31" height="32" viewBox="0 0 31 32" fill="none" xmlns="http://www.w3.org/2000/svg">
<path d="M0.0957031 16.1299C0.0974897 23.6418 5.55986 30.0378 12.9789 31.215V20.5429H9.10488V16.1299H12.9835V12.7706C12.81 11.1788 13.3538 9.59239 14.4671 8.44157C15.5804 7.29074 17.148 6.69482 18.7448 6.81543C19.8908 6.83395 21.0339 6.93601 22.1652 7.12084V10.8757H20.2351C19.5706 10.7886 18.9025 11.0081 18.4191 11.4722C17.9356 11.9363 17.6892 12.5949 17.7492 13.2623V16.1299H21.9805L21.304 20.5444H17.7492V31.215C25.7726 29.947 31.3989 22.6193 30.5522 14.5405C29.7053 6.46173 22.6816 0.460029 14.5697 0.883384C6.45765 1.30674 0.0970011 8.00694 0.0957031 16.1299Z" fill="#1877F2"/>
</svg>
