<svg width="32" height="31" viewBox="0 0 32 31" fill="none" xmlns="http://www.w3.org/2000/svg">
<path d="M16.176 30.6789C12.0043 30.6789 11.5126 30.6569 9.88462 30.5857C8.61513 30.544 7.36208 30.2859 6.17939 29.8226C4.13314 29.0262 2.5151 27.4077 1.71955 25.361C1.27409 24.174 1.03382 22.92 1.00902 21.6524C0.914062 20.0279 0.914062 19.4954 0.914062 15.3561C0.914062 11.1726 0.936107 10.6842 1.00902 9.0648C1.03436 7.79897 1.27461 6.54662 1.71955 5.36126C2.51423 3.31199 4.1349 1.69195 6.18448 0.898028C7.36922 0.450704 8.62188 0.209804 9.88802 0.185809C11.5075 0.0942381 12.0399 0.0942383 16.176 0.0942383C20.3815 0.0942383 20.8647 0.116283 22.4672 0.185809C23.7365 0.210008 24.9926 0.450873 26.1809 0.898028C28.2299 1.69285 29.8502 3.31258 30.6459 5.36126C31.0988 6.5639 31.3403 7.83582 31.3598 9.12076C31.4548 10.7453 31.4548 11.2761 31.4548 15.4137C31.4548 19.5514 31.431 20.094 31.3598 21.6999C31.3345 22.9687 31.0936 24.2239 30.6476 25.4119C29.8499 27.4599 28.2294 29.0792 26.1809 29.8751C24.9943 30.3198 23.7409 30.5601 22.474 30.5857C20.8546 30.6789 20.3238 30.6789 16.176 30.6789ZM16.1183 2.77862C11.9704 2.77862 11.5397 2.79897 9.92023 2.87189C8.95364 2.88471 7.99636 3.06309 7.09001 3.39927C5.75165 3.91141 4.6926 4.96615 4.17501 6.30241C3.83623 7.21863 3.65782 8.18636 3.64762 9.16315C3.55775 10.8063 3.55775 11.2371 3.55775 15.3561C3.55775 19.4259 3.57301 19.9194 3.64762 21.5524C3.66282 22.5193 3.84111 23.4767 4.17501 24.3843C4.69337 25.7197 5.75223 26.7736 7.09001 27.2857C7.99575 27.6242 8.9534 27.8026 9.92023 27.8131C11.5617 27.9081 11.9941 27.9081 16.1183 27.9081C20.278 27.9081 20.7087 27.8877 22.3146 27.8131C23.2819 27.8014 24.2398 27.623 25.1465 27.2857C26.4767 26.7692 27.5289 25.7177 28.0463 24.3877C28.3844 23.4708 28.5626 22.5025 28.5737 21.5252H28.5923C28.6652 19.9041 28.6652 19.4717 28.6652 15.3289C28.6652 11.1862 28.6466 10.7504 28.5737 9.13093C28.5584 8.16513 28.38 7.20883 28.0463 6.30241C27.5301 4.97053 26.4777 3.91699 25.1465 3.39927C24.24 3.06139 23.2819 2.88296 22.3146 2.87189C20.6748 2.77862 20.2458 2.77862 16.1183 2.77862ZM16.176 23.1888C13.0047 23.1908 10.1448 21.2822 8.92969 18.3533C7.71458 15.4242 8.38373 12.0515 10.625 9.80834C12.8664 7.56507 16.2384 6.89301 19.1685 8.10558C22.0986 9.31815 24.0095 12.1765 24.0104 15.3476C24.0056 19.6736 20.5019 23.1803 16.176 23.1888ZM16.176 10.2569C13.3663 10.2569 11.0886 12.5347 11.0886 15.3442C11.0886 18.1539 13.3663 20.4315 16.176 20.4315C18.9855 20.4315 21.2632 18.1539 21.2632 15.3442C21.2566 12.5372 18.9828 10.2634 16.176 10.2569ZM24.3156 9.04786C23.3073 9.04411 22.4925 8.2247 22.4944 7.21644C22.4962 6.20818 23.3141 5.3918 24.3224 5.3918C25.3305 5.3918 26.1484 6.20816 26.1504 7.21642C26.1508 7.70289 25.9574 8.16949 25.6132 8.51314C25.269 8.8568 24.802 9.0492 24.3156 9.04786Z" fill="#FF1091"/>
</svg>
