<svg width="31" height="31" viewBox="0 0 31 31" fill="none" xmlns="http://www.w3.org/2000/svg">
<path d="M25.0986 12.7947C25.5463 12.7947 25.9042 13.1573 25.9042 13.5954C25.9042 14.0383 25.5463 14.4009 25.0986 14.4009H22.8663V15.8325H25.0986C25.5463 15.8325 25.9042 16.1904 25.9042 16.6333C25.9042 17.0713 25.5463 17.434 25.0986 17.434H22.0665C21.6246 17.434 21.2677 17.0713 21.2677 16.6333V10.5633C21.2677 10.1214 21.6256 9.75874 22.0665 9.75874H25.1044C25.5472 9.75874 25.9051 10.1214 25.9051 10.5633C25.9051 11.0061 25.5472 11.364 25.0996 11.364H22.8673V12.7956L25.0986 12.7947ZM20.1988 16.6323C20.1988 16.9749 19.9745 17.2842 19.6462 17.393C19.567 17.4168 19.4772 17.4321 19.3933 17.4321C19.1251 17.4321 18.896 17.3128 18.7414 17.1143L15.6348 12.8892V16.6314C15.6348 17.0694 15.2808 17.4321 14.8341 17.4321C14.3913 17.4321 14.0334 17.0694 14.0334 16.6314V10.5614C14.0334 10.2188 14.2577 9.91145 14.5802 9.80169C14.6595 9.77115 14.753 9.76065 14.8284 9.76065C15.0765 9.76065 15.3056 9.89522 15.4592 10.0842L18.5906 14.3188V10.5614C18.5906 10.1195 18.9485 9.75683 19.3914 9.75683C19.8342 9.75683 20.1969 10.1195 20.1969 10.5614L20.1988 16.6323ZM12.8919 16.6323C12.8919 17.0704 12.5331 17.433 12.0864 17.433C11.6483 17.433 11.2914 17.0704 11.2914 16.6323V10.5623C11.2914 10.1205 11.6493 9.75779 12.0921 9.75779C12.534 9.75779 12.8929 10.1205 12.8929 10.5623L12.8919 16.6323ZM9.75481 17.433H6.71696C6.27412 17.433 5.91145 17.0704 5.91145 16.6323V10.5623C5.91145 10.1205 6.27412 9.75779 6.71696 9.75779C7.1598 9.75779 7.5177 10.1205 7.5177 10.5623V15.8316H9.75481C10.1967 15.8316 10.5555 16.1895 10.5555 16.6323C10.5555 17.0704 10.1919 17.433 9.75481 17.433ZM30.9997 13.3654C30.9997 6.53097 24.1442 0.96875 15.7293 0.96875C7.31442 0.96875 0.458984 6.53097 0.458984 13.3654C0.458984 19.4898 5.89236 24.6196 13.2288 25.5941C13.7261 25.6981 14.4018 25.9224 14.5764 26.3452C14.7301 26.727 14.6757 27.3187 14.626 27.7224L14.417 29.0194C14.3569 29.4021 14.1088 30.5264 15.7494 29.8402C17.3948 29.154 24.5527 24.6511 27.7585 20.9614C29.9508 18.5611 30.9997 16.095 30.9997 13.3654Z" fill="#06C755"/>
</svg>
