<svg width="31" height="26" viewBox="0 0 31 26" fill="none" xmlns="http://www.w3.org/2000/svg">
<path d="M26.9432 4.42146C28.252 3.63902 29.2313 2.40698 29.6983 0.955369C28.4685 1.68509 27.1228 2.19913 25.7197 2.47525C23.7744 0.417394 20.6921 -0.0834073 18.1953 1.2527C15.6986 2.58881 14.4053 5.43105 15.0382 8.19123C10.0006 7.93831 5.30712 5.55868 2.12579 1.6445C0.465513 4.50821 1.31395 8.16901 4.0647 10.0104C3.07 9.97846 2.09735 9.70909 1.22788 9.22493V9.30378C1.22845 12.2868 3.33085 14.8564 6.25473 15.4476C5.33208 15.6985 4.3643 15.7355 3.42521 15.5556C4.24749 18.1067 6.59864 19.8543 9.27843 19.9065C7.05895 21.6484 4.31797 22.5932 1.49652 22.5885C0.996421 22.5892 0.496714 22.5605 0 22.5024C2.86513 24.3435 6.19979 25.3207 9.60548 25.3173C14.3437 25.3499 18.897 23.4819 22.2473 20.1313C25.5976 16.7807 27.4653 12.227 27.4323 7.48896C27.4323 7.2174 27.426 6.94729 27.4133 6.67865C28.6405 5.79183 29.6994 4.69324 30.5407 3.43448C29.3975 3.9412 28.185 4.27388 26.9432 4.42146Z" fill="#1D9BF0"/>
</svg>
