<svg width="31" height="22" viewBox="0 0 31 22" fill="none" xmlns="http://www.w3.org/2000/svg">
<path d="M15.5666 21.3791H15.5361C15.4415 21.3791 5.97711 21.3608 3.58927 20.7124C2.27623 20.3587 1.25079 19.3326 0.897803 18.0194C0.468419 15.5971 0.261082 13.1404 0.278338 10.6804C0.267246 8.2163 0.480214 5.7563 0.914587 3.33077C1.27728 2.01633 2.2982 0.985574 3.6091 0.61031C5.93133 1.36415e-07 15.1348 0 15.5254 0H15.5574C15.6536 0 25.1424 0.018309 27.5058 0.666763C28.8161 1.02228 29.8395 2.04622 30.1942 3.3567C30.6373 5.78809 30.8452 8.25642 30.8152 10.7277C30.8259 13.1888 30.6124 15.6457 30.1774 18.0682C29.8199 19.3798 28.7938 20.4036 27.4814 20.7582C25.1622 21.373 15.9572 21.3791 15.5666 21.3791ZM12.5151 6.11073L12.5074 15.2654L20.4598 10.688L12.5151 6.11073Z" fill="#FF0000"/>
</svg>
