<svg width="415" height="589" viewBox="30 0 355 589" fill="none" preserveAspectRatio="none" xmlns="http://www.w3.org/2000/svg">
<g filter="url(#filter0_d_764_818)">
<path d="M394.997 105.268C363.624 65.6222 323.347 103.868 272.584 85.6553C232.871 71.4054 179.862 18.0159 118.842 20.3426C93.0927 21.3225 44.6098 31.8991 20 53.1423V568.654H394.997V105.268Z" fill="#3A86FF"/>
</g>
<g filter="url(#filter1_d_764_818)">
<path d="M20.12 122.622C20.12 122.622 60.573 90.8354 118.142 97.0753C177.005 103.455 192.682 146.765 263.461 173.191C321.497 194.861 354.604 142.362 395 189.268V552.765H20L20.12 122.625V122.622Z" fill="#8338EC"/>
</g>
<g filter="url(#filter2_d_764_818)">
<path d="M20.0033 191.268C48.3564 168.168 79.7961 165.951 117.022 179.074C164.302 195.744 198.608 236.864 250.181 253.07C279.848 262.394 309.344 249.954 338.85 242.964C356.144 238.867 382.957 244.261 394.993 270.96V537.265H207.558H20.0033V191.268Z" fill="#FF006E"/>
</g>
<g filter="url(#filter3_d_764_818)">
<path d="M20.0033 252.064C22.5633 250.621 25.3866 249.304 27.9966 248.134C64.5129 231.774 101.403 242.271 135.226 264.374C165.579 284.214 194.092 309.833 226.155 320.303C257.625 330.577 290.858 322.627 322.664 316.503C347.01 311.817 371.534 305.733 395 337.117V522.265H20.0033V252.064Z" fill="#FB5607"/>
</g>
<g filter="url(#filter4_d_764_818)">
<path d="M20.0033 317.067C44.6564 313.973 69.8762 318.95 93.4193 331.497C117.142 344.136 140.016 360.89 163.999 372.436C202.908 391.176 243.941 400.169 284.308 391.519C320.987 383.659 359.717 365.783 395 393.736V506.265H208.002H20.0033V317.067Z" fill="#FFBE0B"/>
</g>
<defs>
<filter id="filter0_d_764_818" x="0" y="0.268799" width="414.997" height="588.385" filterUnits="userSpaceOnUse" color-interpolation-filters="sRGB">
<feFlood flood-opacity="0" result="BackgroundImageFix"/>
<feColorMatrix in="SourceAlpha" type="matrix" values="0 0 0 0 0 0 0 0 0 0 0 0 0 0 0 0 0 0 127 0" result="hardAlpha"/>
<feOffset/>
<feGaussianBlur stdDeviation="10"/>
<feColorMatrix type="matrix" values="0 0 0 0 0 0 0 0 0 0 0 0 0 0 0 0 0 0 0.5 0"/>
<feBlend mode="normal" in2="BackgroundImageFix" result="effect1_dropShadow_764_818"/>
<feBlend mode="normal" in="SourceGraphic" in2="effect1_dropShadow_764_818" result="shape"/>
</filter>
<filter id="filter1_d_764_818" x="0" y="76.2637" width="415" height="496.501" filterUnits="userSpaceOnUse" color-interpolation-filters="sRGB">
<feFlood flood-opacity="0" result="BackgroundImageFix"/>
<feColorMatrix in="SourceAlpha" type="matrix" values="0 0 0 0 0 0 0 0 0 0 0 0 0 0 0 0 0 0 127 0" result="hardAlpha"/>
<feOffset/>
<feGaussianBlur stdDeviation="10"/>
<feColorMatrix type="matrix" values="0 0 0 0 0 0 0 0 0 0 0 0 0 0 0 0 0 0 0.5 0"/>
<feBlend mode="normal" in2="BackgroundImageFix" result="effect1_dropShadow_764_818"/>
<feBlend mode="normal" in="SourceGraphic" in2="effect1_dropShadow_764_818" result="shape"/>
</filter>
<filter id="filter2_d_764_818" x="0.0032959" y="151.044" width="414.99" height="406.22" filterUnits="userSpaceOnUse" color-interpolation-filters="sRGB">
<feFlood flood-opacity="0" result="BackgroundImageFix"/>
<feColorMatrix in="SourceAlpha" type="matrix" values="0 0 0 0 0 0 0 0 0 0 0 0 0 0 0 0 0 0 127 0" result="hardAlpha"/>
<feOffset/>
<feGaussianBlur stdDeviation="10"/>
<feColorMatrix type="matrix" values="0 0 0 0 0 0 0 0 0 0 0 0 0 0 0 0 0 0 0.5 0"/>
<feBlend mode="normal" in2="BackgroundImageFix" result="effect1_dropShadow_764_818"/>
<feBlend mode="normal" in="SourceGraphic" in2="effect1_dropShadow_764_818" result="shape"/>
</filter>
<filter id="filter3_d_764_818" x="0.0032959" y="220.161" width="414.997" height="322.104" filterUnits="userSpaceOnUse" color-interpolation-filters="sRGB">
<feFlood flood-opacity="0" result="BackgroundImageFix"/>
<feColorMatrix in="SourceAlpha" type="matrix" values="0 0 0 0 0 0 0 0 0 0 0 0 0 0 0 0 0 0 127 0" result="hardAlpha"/>
<feOffset/>
<feGaussianBlur stdDeviation="10"/>
<feColorMatrix type="matrix" values="0 0 0 0 0 0 0 0 0 0 0 0 0 0 0 0 0 0 0.5 0"/>
<feBlend mode="normal" in2="BackgroundImageFix" result="effect1_dropShadow_764_818"/>
<feBlend mode="normal" in="SourceGraphic" in2="effect1_dropShadow_764_818" result="shape"/>
</filter>
<filter id="filter4_d_764_818" x="0.0032959" y="296.174" width="414.997" height="230.091" filterUnits="userSpaceOnUse" color-interpolation-filters="sRGB">
<feFlood flood-opacity="0" result="BackgroundImageFix"/>
<feColorMatrix in="SourceAlpha" type="matrix" values="0 0 0 0 0 0 0 0 0 0 0 0 0 0 0 0 0 0 127 0" result="hardAlpha"/>
<feOffset/>
<feGaussianBlur stdDeviation="10"/>
<feColorMatrix type="matrix" values="0 0 0 0 0 0 0 0 0 0 0 0 0 0 0 0 0 0 0.5 0"/>
<feBlend mode="normal" in2="BackgroundImageFix" result="effect1_dropShadow_764_818"/>
<feBlend mode="normal" in="SourceGraphic" in2="effect1_dropShadow_764_818" result="shape"/>
</filter>
</defs>
</svg>
