<svg width="31" height="31" viewBox="0 0 31 31" fill="none" xmlns="http://www.w3.org/2000/svg">
<path d="M0.0957031 15.2676C0.0974897 22.7795 5.55986 29.1755 12.9789 30.3527V19.6806H9.10488V15.2676H12.9835V11.9083C12.81 10.3165 13.3538 8.73009 14.4671 7.57926C15.5804 6.42844 17.148 5.83252 18.7448 5.95312C19.8908 5.97164 21.0339 6.07371 22.1652 6.25853V10.0134H20.2351C19.5706 9.92634 18.9025 10.1458 18.4191 10.6099C17.9356 11.074 17.6892 11.7326 17.7492 12.4V15.2676H21.9805L21.304 19.6821H17.7492V30.3527C25.7726 29.0847 31.3989 21.757 30.5522 13.6782C29.7053 5.59943 22.6816 -0.402275 14.5697 0.0210797C6.45765 0.444435 0.0970011 7.14464 0.0957031 15.2676Z" fill="black"/>
</svg>
