<svg width="32" height="31" viewBox="0 0 32 31" fill="none" xmlns="http://www.w3.org/2000/svg">
<path d="M16.176 30.5847C12.0043 30.5847 11.5126 30.5627 9.88462 30.4914C8.61513 30.4497 7.36208 30.1916 6.17939 29.7283C4.13314 28.932 2.5151 27.3134 1.71955 25.2668C1.27409 24.0798 1.03382 22.8258 1.00902 21.5582C0.914062 19.9336 0.914062 19.4012 0.914062 15.2618C0.914062 11.0784 0.936107 10.59 1.00902 8.97056C1.03436 7.70473 1.27461 6.45238 1.71955 5.26703C2.51423 3.21775 4.1349 1.59771 6.18448 0.803789C7.36922 0.356465 8.62188 0.115566 9.88802 0.0915708C11.5075 -1.70564e-07 12.0399 0 16.176 0C20.3815 0 20.8647 0.0220447 22.4672 0.0915708C23.7365 0.115769 24.9926 0.356635 26.1809 0.803789C28.2299 1.59861 29.8502 3.21835 30.6459 5.26703C31.0988 6.46966 31.3403 7.74158 31.3598 9.02652C31.4548 10.6511 31.4548 11.1818 31.4548 15.3195C31.4548 19.4571 31.431 19.9998 31.3598 21.6057C31.3345 22.8744 31.0936 24.1296 30.6476 25.3177C29.8499 27.3656 28.2294 28.9849 26.1809 29.7809C24.9943 30.2255 23.7409 30.4658 22.474 30.4914C20.8546 30.5847 20.3238 30.5847 16.176 30.5847ZM16.1183 2.68439C11.9704 2.68439 11.5397 2.70473 9.92023 2.77765C8.95364 2.79047 7.99636 2.96885 7.09001 3.30503C5.75165 3.81717 4.6926 4.87191 4.17501 6.20817C3.83623 7.12439 3.65782 8.09212 3.64762 9.06892C3.55775 10.7121 3.55775 11.1428 3.55775 15.2618C3.55775 19.3316 3.57301 19.8251 3.64762 21.4581C3.66282 22.425 3.84111 23.3825 4.17501 24.29C4.69337 25.6255 5.75223 26.6794 7.09001 27.1915C7.99575 27.53 8.9534 27.7084 9.92023 27.7189C11.5617 27.8138 11.9941 27.8138 16.1183 27.8138C20.278 27.8138 20.7087 27.7935 22.3146 27.7189C23.2819 27.7072 24.2398 27.5288 25.1465 27.1915C26.4767 26.675 27.5289 25.6234 28.0463 24.2934C28.3844 23.3765 28.5626 22.4083 28.5737 21.431H28.5923C28.6652 19.8098 28.6652 19.3774 28.6652 15.2347C28.6652 11.092 28.6466 10.6561 28.5737 9.0367C28.5584 8.07089 28.38 7.11459 28.0463 6.20817C27.5301 4.87629 26.4777 3.82275 25.1465 3.30503C24.24 2.96715 23.2819 2.78873 22.3146 2.77765C20.6748 2.68439 20.2458 2.68439 16.1183 2.68439ZM16.176 23.0945C13.0047 23.0966 10.1448 21.188 8.92969 18.2591C7.71458 15.33 8.38373 11.9573 10.625 9.7141C12.8664 7.47083 16.2384 6.79877 19.1685 8.01134C22.0986 9.22391 24.0095 12.0823 24.0104 15.2533C24.0056 19.5794 20.5019 23.0861 16.176 23.0945ZM16.176 10.1627C13.3663 10.1627 11.0886 12.4404 11.0886 15.25C11.0886 18.0597 13.3663 20.3372 16.176 20.3372C18.9855 20.3372 21.2632 18.0597 21.2632 15.25C21.2566 12.443 18.9828 10.1692 16.176 10.1627ZM24.3156 8.95362C23.3073 8.94987 22.4925 8.13047 22.4944 7.1222C22.4962 6.11394 23.3141 5.29757 24.3224 5.29757C25.3305 5.29757 26.1484 6.11392 26.1504 7.12219C26.1508 7.60865 25.9574 8.07525 25.6132 8.4189C25.269 8.76256 24.802 8.95496 24.3156 8.95362Z" fill="black"/>
</svg>
