<svg width="31" height="30" viewBox="0 0 31 30" fill="none" xmlns="http://www.w3.org/2000/svg">
<path d="M25.0986 12.196C25.5463 12.196 25.9042 12.5587 25.9042 12.9968C25.9042 13.4396 25.5463 13.8023 25.0986 13.8023H22.8663V15.2339H25.0986C25.5463 15.2339 25.9042 15.5918 25.9042 16.0346C25.9042 16.4727 25.5463 16.8354 25.0986 16.8354H22.0665C21.6246 16.8354 21.2677 16.4727 21.2677 16.0346V9.96466C21.2677 9.52278 21.6256 9.16011 22.0665 9.16011H25.1044C25.5472 9.16011 25.9051 9.52278 25.9051 9.96466C25.9051 10.4075 25.5472 10.7654 25.0996 10.7654H22.8673V12.197L25.0986 12.196ZM20.1988 16.0337C20.1988 16.3763 19.9745 16.6855 19.6462 16.7943C19.567 16.8182 19.4772 16.8335 19.3933 16.8335C19.1251 16.8335 18.896 16.7142 18.7414 16.5156L15.6348 12.2905V16.0327C15.6348 16.4708 15.2808 16.8335 14.8341 16.8335C14.3913 16.8335 14.0334 16.4708 14.0334 16.0327V9.96276C14.0334 9.62013 14.2577 9.31281 14.5802 9.20306C14.6595 9.17252 14.753 9.16202 14.8284 9.16202C15.0765 9.16202 15.3056 9.29659 15.4592 9.48556L18.5906 13.7202V9.96276C18.5906 9.52087 18.9485 9.1582 19.3914 9.1582C19.8342 9.1582 20.1969 9.52087 20.1969 9.96276L20.1988 16.0337ZM12.8919 16.0337C12.8919 16.4717 12.5331 16.8344 12.0864 16.8344C11.6483 16.8344 11.2914 16.4717 11.2914 16.0337V9.96371C11.2914 9.52182 11.6493 9.15915 12.0921 9.15915C12.534 9.15915 12.8929 9.52182 12.8929 9.96371L12.8919 16.0337ZM9.75481 16.8344H6.71696C6.27412 16.8344 5.91145 16.4717 5.91145 16.0337V9.96371C5.91145 9.52182 6.27412 9.15915 6.71696 9.15915C7.1598 9.15915 7.5177 9.52182 7.5177 9.96371V15.2329H9.75481C10.1967 15.2329 10.5555 15.5908 10.5555 16.0337C10.5555 16.4717 10.1919 16.8344 9.75481 16.8344ZM30.9997 12.7668C30.9997 5.93234 24.1442 0.370117 15.7293 0.370117C7.31442 0.370117 0.458984 5.93234 0.458984 12.7668C0.458984 18.8911 5.89236 24.021 13.2288 24.9955C13.7261 25.0995 14.4018 25.3238 14.5764 25.7466C14.7301 26.1283 14.6757 26.72 14.626 27.1238L14.417 28.4208C14.3569 28.8035 14.1088 29.9278 15.7494 29.2416C17.3948 28.5554 24.5527 24.0525 27.7585 20.3628C29.9508 17.9625 30.9997 15.4963 30.9997 12.7668Z" fill="black"/>
</svg>
