<svg width="31" height="26" viewBox="0 0 31 26" fill="none" xmlns="http://www.w3.org/2000/svg">
<path d="M26.9432 4.65193C28.252 3.86949 29.2313 2.63745 29.6983 1.18584C28.4685 1.91556 27.1228 2.4296 25.7197 2.70572C23.7744 0.647863 20.6921 0.147061 18.1953 1.48317C15.6986 2.81928 14.4053 5.66152 15.0382 8.4217C10.0006 8.16878 5.30712 5.78915 2.12579 1.87497C0.465513 4.73868 1.31395 8.39948 4.0647 10.2409C3.07 10.2089 2.09735 9.93955 1.22788 9.4554V9.53425C1.22845 12.5172 3.33085 15.0869 6.25473 15.678C5.33208 15.929 4.3643 15.9659 3.42521 15.7861C4.24749 18.3372 6.59864 20.0848 9.27843 20.1369C7.05895 21.8789 4.31797 22.8237 1.49652 22.819C0.996421 22.8197 0.496714 22.791 0 22.7328C2.86513 24.5739 6.19979 25.5511 9.60548 25.5478C14.3437 25.5803 18.897 23.7124 22.2473 20.3618C25.5976 17.0112 27.4653 12.4575 27.4323 7.71943C27.4323 7.44787 27.426 7.17776 27.4133 6.90912C28.6405 6.0223 29.6994 4.92371 30.5407 3.66495C29.3975 4.17167 28.185 4.50435 26.9432 4.65193Z" fill="black"/>
</svg>
