<svg width="31" height="22" viewBox="0 0 31 22" fill="none" xmlns="http://www.w3.org/2000/svg">
<path d="M15.5666 21.4905H15.5361C15.4415 21.4905 5.97711 21.4722 3.58927 20.8237C2.27623 20.47 1.25079 19.444 0.897803 18.1307C0.468419 15.7084 0.261082 13.2518 0.278338 10.7917C0.267246 8.32762 0.480214 5.86763 0.914587 3.44209C1.27728 2.12765 2.2982 1.0969 3.6091 0.721638C5.93133 0.111328 15.1348 0.111328 15.5254 0.111328H15.5574C15.6536 0.111328 25.1424 0.129637 27.5058 0.778091C28.8161 1.13361 29.8395 2.15754 30.1942 3.46803C30.6373 5.89941 30.8452 8.36775 30.8152 10.839C30.8259 13.3001 30.6124 15.7571 30.1774 18.1795C29.8199 19.4911 28.7938 20.5149 27.4814 20.8695C25.1622 21.4844 15.9572 21.4905 15.5666 21.4905ZM12.5151 6.22205L12.5074 15.3767L20.4598 10.7994L12.5151 6.22205Z" fill="black"/>
</svg>
