<svg width="49" height="49" viewBox="0 0 49 49" fill="none" xmlns="http://www.w3.org/2000/svg">
<path d="M0.0307617 24.2481C0.0335991 36.1784 8.70895 46.3366 20.4919 48.2061V31.2568H14.3392V24.2481H20.4992V18.9128C20.2237 16.3847 21.0873 13.8651 22.8554 12.0374C24.6236 10.2097 27.1133 9.26322 29.6493 9.45475C31.4693 9.48417 33.2848 9.64627 35.0816 9.93981V15.9032H32.0162C30.9608 15.765 29.8998 16.1136 29.132 16.8507C28.3642 17.5878 27.9727 18.6337 28.0681 19.6936V24.2481H34.7881L33.7138 31.2592H28.0681V48.2061C40.8108 46.1923 49.7465 34.5545 48.4017 21.7237C47.0567 8.89302 35.9018 -0.638894 23.0184 0.0334788C10.1348 0.705852 0.0328231 11.3471 0.0307617 24.2481Z" fill="white"/>
</svg>
