<svg width="49" height="47" viewBox="0 0 49 47" fill="none" xmlns="http://www.w3.org/2000/svg">
<path d="M39.6191 18.9585C40.33 18.9585 40.8984 19.5345 40.8984 20.2302C40.8984 20.9335 40.33 21.5095 39.6191 21.5095H36.0737V23.7832H39.6191C40.33 23.7832 40.8984 24.3516 40.8984 25.0549C40.8984 25.7506 40.33 26.3266 39.6191 26.3266H34.8035C34.1016 26.3266 33.5347 25.7506 33.5347 25.0549V15.4146C33.5347 14.7128 34.1032 14.1368 34.8035 14.1368H39.6282C40.3315 14.1368 40.8999 14.7128 40.8999 15.4146C40.8999 16.1179 40.3315 16.6863 39.6206 16.6863H36.0752V18.96L39.6191 18.9585ZM31.8371 25.0534C31.8371 25.5976 31.4809 26.0887 30.9594 26.2615C30.8336 26.2994 30.6912 26.3236 30.5578 26.3236C30.1318 26.3236 29.7681 26.1341 29.5225 25.8189L24.5887 19.1085V25.0519C24.5887 25.7476 24.0263 26.3236 23.3169 26.3236C22.6136 26.3236 22.0452 25.7476 22.0452 25.0519V15.4116C22.0452 14.8674 22.4014 14.3793 22.9137 14.205C23.0395 14.1565 23.1881 14.1398 23.3078 14.1398C23.7019 14.1398 24.0657 14.3535 24.3097 14.6537L29.283 21.3792V15.4116C29.283 14.7098 29.8514 14.1338 30.5547 14.1338C31.2581 14.1338 31.834 14.7098 31.834 15.4116L31.8371 25.0534ZM20.2323 25.0534C20.2323 25.7491 19.6624 26.3251 18.953 26.3251C18.2573 26.3251 17.6904 25.7491 17.6904 25.0534V15.4131C17.6904 14.7113 18.2588 14.1353 18.9621 14.1353C19.6639 14.1353 20.2338 14.7113 20.2338 15.4131L20.2323 25.0534ZM15.25 26.3251H10.4253C9.72194 26.3251 9.14594 25.7491 9.14594 25.0534V15.4131C9.14594 14.7113 9.72194 14.1353 10.4253 14.1353C11.1286 14.1353 11.697 14.7113 11.697 15.4131V23.7817H15.25C15.9518 23.7817 16.5217 24.3501 16.5217 25.0534C16.5217 25.7491 15.9442 26.3251 15.25 26.3251ZM48.9911 19.8649C48.9911 9.01044 38.1033 0.176514 24.7387 0.176514C11.3741 0.176514 0.486328 9.01044 0.486328 19.8649C0.486328 29.5916 9.11563 37.7389 20.7674 39.2865C21.5571 39.4517 22.6303 39.8079 22.9077 40.4794C23.1517 41.0857 23.0653 42.0255 22.9865 42.6667L22.6545 44.7266C22.559 45.3344 22.1649 47.12 24.7705 46.0302C27.3837 44.9403 38.752 37.7889 43.8435 31.9289C47.3253 28.1168 48.9911 24.2 48.9911 19.8649Z" fill="white"/>
</svg>
