<svg width="49" height="40" viewBox="0 0 49 40" fill="none" xmlns="http://www.w3.org/2000/svg">
<path d="M42.7912 6.56509C44.8698 5.32242 46.4253 3.3657 47.1668 1.06025C45.2137 2.21919 43.0764 3.03559 40.8481 3.47412C37.7585 0.205835 32.8633 -0.589539 28.8979 1.53247C24.9325 3.65448 22.8785 8.16853 23.8837 12.5523C15.8829 12.1506 8.42877 8.37124 3.37618 2.15472C0.739329 6.70288 2.08681 12.517 6.45556 15.4415C4.87578 15.3907 3.33101 14.9629 1.95012 14.194V14.3192C1.95102 19.0568 5.29006 23.1379 9.93377 24.0767C8.46842 24.4754 6.93138 24.534 5.43992 24.2483C6.74587 28.3 10.48 31.0756 14.736 31.1584C11.211 33.925 6.8578 35.4255 2.37678 35.418C1.58252 35.4192 0.788881 35.3735 0 35.2812C4.5504 38.2052 9.84651 39.7572 15.2554 39.7519C22.7806 39.8036 30.0123 36.8369 35.3332 31.5155C40.6542 26.1941 43.6204 18.9619 43.568 11.4369C43.568 11.0056 43.5581 10.5766 43.5379 10.15C45.4868 8.74153 47.1687 6.99674 48.5048 4.99758C46.6891 5.80235 44.7634 6.33071 42.7912 6.56509Z" fill="white"/>
</svg>
