<svg width="49" height="35" viewBox="0 0 49 35" fill="none" xmlns="http://www.w3.org/2000/svg">
<path d="M24.541 34.4837H24.4925C24.3423 34.4837 9.31092 34.4546 5.51855 33.4247C3.43318 32.863 1.80457 31.2334 1.24396 29.1477C0.562011 25.3006 0.232718 21.3989 0.260124 17.492C0.242508 13.5784 0.580743 9.67147 1.27061 5.81922C1.84664 3.73163 3.46808 2.09459 5.55005 1.49859C9.23822 0.529297 23.8552 0.529297 24.4755 0.529297H24.5264C24.6791 0.529297 39.7492 0.558375 43.5028 1.58825C45.5839 2.15289 47.2091 3.7791 47.7725 5.86042C48.4762 9.72194 48.8065 13.6422 48.7588 17.5671C48.7758 21.4758 48.4367 25.3779 47.7459 29.2253C47.1781 31.3083 45.5485 32.9343 43.464 33.4974C39.7807 34.474 25.1613 34.4837 24.541 34.4837ZM19.6945 10.2344L19.6824 24.7738L32.3123 17.5041L19.6945 10.2344Z" fill="white"/>
</svg>
