<svg width="20" height="25" viewBox="0 0 20 25" fill="none" xmlns="http://www.w3.org/2000/svg">
<path d="M0 2.5C0 1.83696 0.263392 1.20107 0.732233 0.732233C1.20107 0.263392 1.83696 0 2.5 0H12.5C12.8315 7.07968e-05 13.1494 0.131813 13.3837 0.36625L19.6338 6.61625C19.8682 6.85062 19.9999 7.16851 20 7.5V22.5C20 23.163 19.7366 23.7989 19.2678 24.2678C18.7989 24.7366 18.163 25 17.5 25H2.5C1.83696 25 1.20107 24.7366 0.732233 24.2678C0.263392 23.7989 0 23.163 0 22.5V2.5ZM16.9825 7.5L12.5 3.0175V7.5H16.9825ZM10 2.5H2.5V22.5H17.5V10H11.25C10.9185 10 10.6005 9.8683 10.3661 9.63388C10.1317 9.39946 10 9.08152 10 8.75V2.5ZM5 13.75C5 13.4185 5.1317 13.1005 5.36612 12.8661C5.60054 12.6317 5.91848 12.5 6.25 12.5H13.75C14.0815 12.5 14.3995 12.6317 14.6339 12.8661C14.8683 13.1005 15 13.4185 15 13.75C15 14.0815 14.8683 14.3995 14.6339 14.6339C14.3995 14.8683 14.0815 15 13.75 15H6.25C5.91848 15 5.60054 14.8683 5.36612 14.6339C5.1317 14.3995 5 14.0815 5 13.75ZM5 18.75C5 18.4185 5.1317 18.1005 5.36612 17.8661C5.60054 17.6317 5.91848 17.5 6.25 17.5H13.75C14.0815 17.5 14.3995 17.6317 14.6339 17.8661C14.8683 18.1005 15 18.4185 15 18.75C15 19.0815 14.8683 19.3995 14.6339 19.6339C14.3995 19.8683 14.0815 20 13.75 20H6.25C5.91848 20 5.60054 19.8683 5.36612 19.6339C5.1317 19.3995 5 19.0815 5 18.75Z" fill="#0D0D0D"/>
</svg>
