<svg width="11" height="14" viewBox="0 0 11 14" fill="none" xmlns="http://www.w3.org/2000/svg">
<path d="M5.5 0C5.68234 0 5.8572 0.0737498 5.98614 0.205025C6.11507 0.336301 6.1875 0.514348 6.1875 0.7V8.1102L7.76394 6.5051C7.8936 6.37759 8.06727 6.30703 8.24753 6.30863C8.42779 6.31022 8.60022 6.38384 8.72769 6.51363C8.85516 6.64341 8.92746 6.81898 8.92903 7.00252C8.93059 7.18606 8.8613 7.36288 8.73606 7.4949L5.98606 10.2949C5.85714 10.4261 5.6823 10.4999 5.5 10.4999C5.3177 10.4999 5.14286 10.4261 5.01394 10.2949L2.26394 7.4949C2.19827 7.43033 2.1459 7.35309 2.10987 7.26768C2.07384 7.18228 2.05487 7.09043 2.05408 6.99748C2.05328 6.90453 2.07068 6.81236 2.10525 6.72633C2.13982 6.6403 2.19086 6.56215 2.25542 6.49642C2.31997 6.4307 2.39673 6.37872 2.48122 6.34352C2.56571 6.30833 2.65624 6.29062 2.74753 6.29142C2.83881 6.29223 2.92903 6.31154 3.0129 6.34823C3.09678 6.38491 3.17264 6.43824 3.23606 6.5051L4.8125 8.1102V0.7C4.8125 0.514348 4.88493 0.336301 5.01386 0.205025C5.1428 0.0737498 5.31766 0 5.5 0ZM0.6875 10.5C0.869836 10.5 1.0447 10.5737 1.17364 10.705C1.30257 10.8363 1.375 11.0143 1.375 11.2V12.6H9.625V11.2C9.625 11.0143 9.69743 10.8363 9.82636 10.705C9.95529 10.5737 10.1302 10.5 10.3125 10.5C10.4948 10.5 10.6697 10.5737 10.7986 10.705C10.9276 10.8363 11 11.0143 11 11.2V12.6C11 12.9713 10.8551 13.3274 10.5973 13.5899C10.3394 13.8525 9.98967 14 9.625 14H1.375C1.01033 14 0.660591 13.8525 0.402728 13.5899C0.144866 13.3274 0 12.9713 0 12.6V11.2C0 11.0143 0.072433 10.8363 0.201364 10.705C0.330295 10.5737 0.505164 10.5 0.6875 10.5Z" fill="white"/>
</svg>
