<svg width="16" height="19" viewBox="0 0 16 19" fill="none" xmlns="http://www.w3.org/2000/svg">
<path d="M7.6 0C3.42 0 0 3.42 0 7.6C0 12.73 6.65 18.525 6.935 18.81C7.125 18.905 7.41 19 7.6 19C7.79 19 8.075 18.905 8.265 18.81C8.55 18.525 15.2 12.73 15.2 7.6C15.2 3.42 11.78 0 7.6 0ZM7.6 16.815C5.605 14.915 1.9 10.83 1.9 7.6C1.9 4.465 4.465 1.9 7.6 1.9C10.735 1.9 13.3 4.465 13.3 7.6C13.3 10.735 9.595 14.915 7.6 16.815ZM7.6 3.8C5.51 3.8 3.8 5.51 3.8 7.6C3.8 9.69 5.51 11.4 7.6 11.4C9.69 11.4 11.4 9.69 11.4 7.6C11.4 5.51 9.69 3.8 7.6 3.8ZM7.6 9.5C6.555 9.5 5.7 8.645 5.7 7.6C5.7 6.555 6.555 5.7 7.6 5.7C8.645 5.7 9.5 6.555 9.5 7.6C9.5 8.645 8.645 9.5 7.6 9.5Z" fill="#686868"/>
</svg>
