<svg width="20" height="25" viewBox="0 0 20 25" fill="none" xmlns="http://www.w3.org/2000/svg">
<path d="M10 0C4.5 0 0 4.5 0 10C0 16.75 8.75 24.375 9.125 24.75C9.375 24.875 9.75 25 10 25C10.25 25 10.625 24.875 10.875 24.75C11.25 24.375 20 16.75 20 10C20 4.5 15.5 0 10 0ZM10 22.125C7.375 19.625 2.5 14.25 2.5 10C2.5 5.875 5.875 2.5 10 2.5C14.125 2.5 17.5 5.875 17.5 10C17.5 14.125 12.625 19.625 10 22.125ZM10 5C7.25 5 5 7.25 5 10C5 12.75 7.25 15 10 15C12.75 15 15 12.75 15 10C15 7.25 12.75 5 10 5ZM10 12.5C8.625 12.5 7.5 11.375 7.5 10C7.5 8.625 8.625 7.5 10 7.5C11.375 7.5 12.5 8.625 12.5 10C12.5 11.375 11.375 12.5 10 12.5Z" fill="#686868"/>
</svg>
