<svg width="146" height="147" viewBox="0 0 146 147" fill="none" xmlns="http://www.w3.org/2000/svg">
<path d="M94.3066 5.05877C93.4743 3.73771 92.5231 3.39424 92.1004 3.27534C91.6248 3.14324 91.0303 3.05076 90.5019 3.38103C90.2113 3.53955 89.9603 3.83019 89.8546 4.21329C89.7489 4.56998 89.7885 4.87382 89.9603 5.13803C90.2245 5.57398 90.7001 5.8514 91.5984 6.51193L92.6024 7.25172C93.1837 7.68767 93.897 8.24251 94.3198 8.96909C94.9539 10.0391 94.8878 11.1753 94.6368 12.0604C94.2009 13.606 93.2893 14.7949 92.2721 15.3894C90.568 16.4066 88.5996 15.9971 87.6088 15.7197C86.5387 15.4158 85.6404 14.9931 84.8346 14.2665C84.1741 13.6721 83.5003 12.7341 83.104 12.0207L85.5876 10.0656C85.865 10.5544 86.3274 11.2413 86.6576 11.598C87.1332 12.1132 87.6881 12.4699 88.3882 12.668C88.8374 12.8002 89.4847 12.8794 90.1056 12.5888C90.4623 12.4303 90.819 12.0868 90.9775 11.5319C91.1228 11.0432 91.0039 10.6733 90.7661 10.3166C90.4623 9.86741 89.63 9.27294 89.2469 8.99551L88.1372 8.2293C87.5163 7.79335 86.7897 7.25172 86.3934 6.45909C85.8386 5.41545 86.0235 4.33219 86.2217 3.60561C86.5916 2.28455 87.305 1.28055 88.4675 0.606811C89.815 -0.172612 91.1624 -0.106559 92.5496 0.276547C93.58 0.567179 95.1917 1.2145 96.5656 2.99792L94.3198 5.07198L94.3066 5.05877Z" fill="white"/>
<path d="M104.69 14.7156C104.254 13.7513 103.567 13.2757 103.079 13.0379C102.141 12.5755 101.348 12.7605 101.044 12.8662C100.45 13.0643 99.8553 13.5267 99.4854 14.2797C99.1419 14.9666 99.1023 15.68 99.2873 16.2613C99.4986 16.9878 100.067 17.5823 100.727 17.9126C101.242 18.1636 102.035 18.375 102.999 18.1372L101.665 20.8453C100.661 20.8982 99.8421 20.6472 99.0098 20.2376C97.451 19.4714 96.5395 18.3089 96.0903 17.0539C95.7204 16.0103 95.5487 14.4778 96.3809 12.7869C97.1604 11.2016 98.455 10.2769 99.7364 9.88057C101.269 9.4182 102.656 9.69562 103.924 10.3165C104.743 10.7128 105.417 11.2413 106.025 12.0075L104.677 14.7421L104.69 14.7156Z" fill="white"/>
<path d="M108.892 13.4873L111.627 15.416L110.689 16.7503C111.27 16.4465 111.957 16.2747 112.578 16.3144C113.238 16.354 113.767 16.605 114.295 16.9881C114.639 17.2259 114.863 17.4373 115.101 17.7543L113.146 20.2115C112.921 19.7623 112.604 19.3792 112.129 19.0357C111.534 18.6262 110.953 18.5205 110.358 18.6394C109.302 18.864 108.601 19.7359 108.086 20.4493L105.669 23.8972L102.934 21.9685L108.892 13.4873Z" fill="white"/>
<path d="M117.743 32.9727C116.422 32.9727 114.784 32.3518 113.37 30.9119C111.957 29.4719 111.376 27.8206 111.389 26.4995C111.402 25.0199 112.102 23.6064 113.053 22.6817C114.005 21.7569 115.418 21.07 116.898 21.0832C118.219 21.0832 119.857 21.7041 121.27 23.144C122.684 24.584 123.265 26.2353 123.252 27.5564C123.252 29.036 122.539 30.4495 121.587 31.3742C120.636 32.299 119.223 32.9859 117.743 32.9727ZM117.4 24.3198C116.713 24.3198 116.065 24.5576 115.471 25.1388C114.797 25.8126 114.625 26.4995 114.612 27.0544C114.612 27.6488 114.797 28.3094 115.418 28.9303C115.933 29.4587 116.567 29.7361 117.254 29.7361C117.941 29.7361 118.589 29.4983 119.183 28.9171C119.778 28.3358 120.029 27.6885 120.042 27.0015C120.042 26.3146 119.791 25.6805 119.249 25.1388C118.708 24.584 118.087 24.3198 117.4 24.3198Z" fill="white"/>
<path d="M134.375 29.3794L120.543 39.1684L118.615 36.4338L132.446 26.6448L134.375 29.3794Z" fill="white"/>
<path d="M138.233 35.7337L123.49 44.1092L121.838 41.2029L136.581 32.8274L138.233 35.7337Z" fill="white"/>
<path d="M129.632 61.4152L128.76 58.1786L129.976 57.8484C129.13 57.5445 128.047 56.8708 127.571 55.1006C127.175 53.621 127.347 52.4188 128.007 51.2959C128.76 49.9881 130.042 49.0501 131.6 48.6406C133.265 48.1915 134.797 48.4292 135.973 49.1426C137.043 49.7899 137.889 50.8864 138.259 52.2603C138.562 53.3568 138.523 54.6646 137.651 55.7743L145.128 53.7399L146 56.9765L129.645 61.4152H129.632ZM134.546 52.2603C133.965 51.9168 133.239 51.7715 132.433 51.9961C131.693 52.1943 131.125 52.683 130.808 53.2775C130.464 53.8984 130.411 54.5854 130.57 55.1534C130.729 55.7611 131.178 56.4084 131.812 56.7915C132.274 57.069 132.974 57.2671 133.807 57.0425C134.665 56.818 135.154 56.316 135.458 55.8272C135.854 55.1666 135.894 54.5061 135.709 53.8059C135.537 53.1586 135.207 52.6434 134.573 52.2603H134.546Z" fill="white"/>
<path d="M131.654 73.3045C130.69 72.4194 129.884 70.8605 129.792 68.8393C129.699 66.8181 130.386 65.2064 131.284 64.242C132.288 63.1588 133.755 62.5775 135.076 62.5247C136.397 62.4718 137.903 62.921 138.999 63.925C139.964 64.8101 140.77 66.3689 140.862 68.3902C140.954 70.4114 140.268 72.0231 139.382 72.9874C138.378 74.0707 136.912 74.652 135.591 74.7048C134.27 74.7577 132.764 74.3085 131.667 73.3045H131.654ZM137.203 66.6596C136.701 66.1972 136.053 65.933 135.221 65.9726C134.27 66.0123 133.675 66.4086 133.306 66.8181C132.909 67.2541 132.605 67.8749 132.645 68.7468C132.671 69.4866 132.962 70.1075 133.464 70.5699C133.966 71.0323 134.613 71.2965 135.446 71.2569C136.278 71.2172 136.899 70.9134 137.361 70.4114C137.824 69.9094 138.061 69.2621 138.022 68.4958C137.995 67.7296 137.705 67.1087 137.203 66.6464V66.6596Z" fill="white"/>
<path d="M129.264 81.8912L129.739 79.8568L141.008 77.1882L140.176 80.7683L134.204 82.1158L139.105 85.96L138.709 87.6774L132.606 88.9456L137.362 92.8031L136.529 96.3832L127.612 88.9985L128.088 86.964L134.429 85.7751L129.277 81.9044L129.264 81.8912Z" fill="white"/>
<path d="M134.838 99.131L133.239 102.077L132.156 101.482C132.816 103.002 132.42 104.164 131.944 105.023C131.508 105.816 130.808 106.78 129.606 107.137C128.285 107.533 127.162 107.004 126.422 106.595L120.663 103.464L122.261 100.518L126.938 103.055C127.532 103.372 128.298 103.768 129.025 103.557C129.368 103.451 129.751 103.187 130.042 102.658C130.372 102.051 130.346 101.522 130.214 101.165C129.989 100.412 129.382 99.9765 128.787 99.6462L124.111 97.1098L125.709 94.1638L134.824 99.1178L134.838 99.131Z" fill="white"/>
<path d="M118.76 123.161C120.319 123.095 121.085 122.434 121.402 122.131C121.745 121.787 122.128 121.311 122.102 120.691C122.102 120.36 121.983 120.004 121.706 119.713C121.441 119.449 121.164 119.33 120.847 119.343C120.332 119.343 119.856 119.634 118.839 120.083L117.703 120.585C117.042 120.876 116.197 121.219 115.365 121.219C114.11 121.245 113.172 120.611 112.538 119.964C111.415 118.815 110.833 117.441 110.82 116.265C110.781 114.27 112.115 112.777 112.841 112.051C113.634 111.271 114.44 110.703 115.484 110.36C116.329 110.083 117.478 109.964 118.297 109.977L118.76 113.108C118.205 113.108 117.386 113.161 116.897 113.279C116.21 113.438 115.629 113.742 115.114 114.257C114.783 114.587 114.387 115.103 114.334 115.776C114.295 116.173 114.413 116.648 114.823 117.058C115.18 117.428 115.563 117.507 115.986 117.48C116.527 117.441 117.452 117.018 117.888 116.82L119.103 116.239C119.803 115.908 120.622 115.565 121.508 115.605C122.696 115.644 123.542 116.344 124.057 116.873C125.022 117.85 125.537 118.973 125.537 120.307C125.537 121.866 124.823 123.002 123.793 124.006C123.027 124.759 121.679 125.829 119.433 126.147L118.747 123.161H118.76Z" fill="white"/>
<path d="M105.206 127.415C106.263 127.521 107.016 127.151 107.466 126.847C108.337 126.266 108.562 125.486 108.628 125.169C108.747 124.561 108.628 123.808 108.179 123.121C107.743 122.487 107.148 122.104 106.554 121.972C105.814 121.8 105.022 121.999 104.414 122.408C103.938 122.738 103.37 123.306 103.093 124.284L101.402 121.774C101.864 120.876 102.472 120.294 103.251 119.766C104.691 118.788 106.144 118.564 107.452 118.802C108.536 119 109.962 119.607 111.006 121.166C111.997 122.633 112.155 124.205 111.865 125.526C111.508 127.085 110.583 128.155 109.407 128.947C108.654 129.449 107.875 129.793 106.911 129.938L105.206 127.415Z" fill="white"/>
<path d="M104.19 131.682L101.164 133.109L100.477 131.629C100.451 132.29 100.253 132.963 99.9093 133.492C99.5526 134.047 99.0638 134.377 98.4826 134.654C98.0995 134.826 97.8088 134.919 97.4257 134.971L96.2632 132.052C96.7652 132.078 97.2672 131.999 97.7956 131.748C98.4429 131.444 98.826 130.982 99.011 130.401C99.3412 129.37 98.9317 128.327 98.5618 127.534L96.7652 123.729L99.7904 122.302L104.203 131.682H104.19Z" fill="white"/>
<path d="M82.9201 129.674C83.5806 128.538 84.9281 127.415 86.8833 126.913C88.8384 126.411 90.5558 126.715 91.6919 127.389C92.9733 128.142 93.8452 129.449 94.1755 130.731C94.5058 132.012 94.3869 133.584 93.6471 134.853C92.9865 135.989 91.6391 137.112 89.6839 137.614C87.7287 138.116 86.0114 137.812 84.8753 137.138C83.5938 136.385 82.7219 135.077 82.3917 133.796C82.0614 132.514 82.1803 130.942 82.9201 129.674ZM90.5954 133.677C90.9389 133.082 91.0578 132.409 90.8464 131.59C90.6086 130.665 90.0934 130.176 89.6046 129.899C89.0894 129.595 88.4289 129.436 87.5702 129.661C86.8568 129.846 86.302 130.255 85.9585 130.85C85.615 131.444 85.4962 132.118 85.7075 132.937C85.9189 133.756 86.3548 134.285 86.9493 134.628C87.5438 134.971 88.2175 135.064 88.9573 134.866C89.6971 134.668 90.2387 134.258 90.5954 133.664V133.677Z" fill="white"/>
<path d="M77.7152 145.897L76.1299 129.027L79.4589 128.71L81.0442 145.58L77.7152 145.897Z" fill="white"/>
<path d="M70.1455 146.042L70.4229 129.093L73.7652 129.146L73.4878 146.095L70.1455 146.042Z" fill="white"/>
<path d="M52.285 125.882L55.5348 126.715L55.2178 127.93C55.9047 127.335 57.0144 126.741 58.7978 127.203C60.2774 127.586 61.2418 128.339 61.8891 129.462C62.6553 130.77 62.827 132.342 62.4175 133.901C61.9816 135.566 61.0172 136.781 59.815 137.455C58.7186 138.062 57.3447 138.261 55.9708 137.904C54.8743 137.613 53.7514 136.94 53.223 135.632L51.281 143.135L48.0444 142.303L52.285 125.896V125.882ZM57.8202 134.694C58.4147 134.364 58.8903 133.795 59.1017 132.99C59.2998 132.25 59.1545 131.51 58.7846 130.942C58.4147 130.334 57.8467 129.951 57.2786 129.806C56.6709 129.647 55.8915 129.713 55.2442 130.07C54.7686 130.334 54.2534 130.849 54.0288 131.682C53.8042 132.54 53.9892 133.214 54.2666 133.716C54.6497 134.39 55.2046 134.747 55.9047 134.932C56.552 135.103 57.1729 135.064 57.807 134.707L57.8202 134.694Z" fill="white"/>
<path d="M40.9774 121.708C42.2324 121.312 43.9762 121.378 45.7728 122.316C47.5694 123.254 48.6263 124.641 49.0226 125.896C49.4718 127.31 49.234 128.868 48.6263 130.031C48.0186 131.193 46.8693 132.29 45.469 132.739C44.214 133.135 42.4702 133.069 40.6735 132.131C38.8769 131.193 37.8201 129.806 37.4237 128.551C36.9746 127.138 37.2124 125.579 37.8201 124.416C38.4277 123.254 39.5771 122.157 40.9774 121.708ZM43.9894 129.82C44.6499 129.608 45.1916 129.185 45.5747 128.446C46.0106 127.6 45.9578 126.887 45.7992 126.358C45.6275 125.79 45.2312 125.222 44.4518 124.813C43.7912 124.469 43.1175 124.403 42.457 124.615C41.7964 124.826 41.268 125.249 40.8717 125.988C40.4886 126.728 40.449 127.415 40.6471 128.076C40.8585 128.736 41.2944 129.252 41.9682 129.608C42.6419 129.965 43.3289 130.031 43.9762 129.82H43.9894Z" fill="white"/>
<path d="M34.7406 115.38L36.273 116.807L32.9835 127.917L30.3018 125.42L32.0984 119.568L26.3254 121.906L25.0308 120.704L26.9595 114.786L21.2526 116.992L18.5576 114.495L29.4035 110.426L30.9359 111.853L28.8222 117.943L34.7538 115.393L34.7406 115.38Z" fill="white"/>
<path d="M16.9986 111.655L15.2284 108.814L16.272 108.167C14.6207 107.982 13.8148 107.071 13.2996 106.238C12.8241 105.472 12.3353 104.376 12.6259 103.16C12.943 101.813 13.947 101.113 14.6603 100.664L20.2352 97.2024L22.0054 100.043L17.4874 102.843C16.9193 103.2 16.1927 103.676 16.021 104.402C15.9417 104.759 15.9814 105.221 16.2984 105.736C16.6683 106.331 17.1307 106.555 17.5138 106.622C18.28 106.806 18.967 106.489 19.535 106.133L24.053 103.332L25.8232 106.172L17.0118 111.642L16.9986 111.655Z" fill="white"/>
<path d="M4.0797 85.7225C3.36633 87.1096 3.55128 88.1004 3.65696 88.5231C3.77586 88.9987 4.00044 89.5667 4.55528 89.8442C4.8327 90.0027 5.21581 90.082 5.59891 89.9763C5.9556 89.8838 6.19339 89.6988 6.33871 89.4214C6.5765 88.9723 6.5765 88.4174 6.69539 87.3077L6.8275 86.0659C6.90676 85.3526 7.02565 84.4543 7.43518 83.7145C8.04287 82.618 9.06008 82.116 9.93198 81.8782C11.4776 81.4687 12.9704 81.6536 13.9876 82.2349C15.7314 83.1992 16.3787 85.1016 16.6297 86.0924C16.9072 87.1756 16.9996 88.1532 16.775 89.2233C16.5901 90.082 16.1277 91.152 15.7182 91.8654L12.7722 90.7161C13.0497 90.2273 13.4064 89.4875 13.5517 89.0251C13.763 88.3514 13.7762 87.6908 13.5913 86.9907C13.4724 86.5415 13.2214 85.9338 12.6534 85.5507C12.3231 85.3261 11.8607 85.1808 11.2927 85.3261C10.7907 85.4583 10.5397 85.7357 10.3547 86.132C10.1301 86.6208 10.0245 87.638 9.98482 88.1004L9.87913 89.4478C9.81308 90.2141 9.7074 91.0992 9.23182 91.8522C8.61092 92.8562 7.5805 93.2525 6.85392 93.4374C5.53286 93.7809 4.29107 93.6752 3.14175 93.0147C1.78106 92.2353 1.16017 91.0595 0.790271 89.6592C0.51285 88.6288 0.261849 86.9114 1.10732 84.8109L4.02686 85.696L4.0797 85.7225Z" fill="white"/>
<path d="M7.15732 71.8909C6.54963 72.7496 6.48358 73.595 6.52321 74.1235C6.60247 75.1671 7.15732 75.7616 7.40832 75.973C7.8839 76.3825 8.57085 76.6599 9.41632 76.5938C10.1825 76.541 10.8034 76.2107 11.2262 75.7616C11.7414 75.2067 11.966 74.4273 11.9131 73.6875C11.8735 73.1063 11.6489 72.3268 10.9487 71.6135L13.9608 71.4021C14.5156 72.2476 14.7138 73.0666 14.7798 74.0046C14.9119 75.7484 14.3703 77.1091 13.5116 78.1263C12.7982 78.9718 11.5696 79.8965 9.69374 80.0286C7.93674 80.1607 6.48358 79.5134 5.49279 78.6019C4.31705 77.5186 3.85468 76.1843 3.74899 74.7708C3.68294 73.8725 3.78862 73.0138 4.14531 72.1155L7.18374 71.8909H7.15732Z" fill="white"/>
<path d="M3.96045 68.9184L4.22466 65.5762L5.84956 65.7083C5.29472 65.3648 4.79271 64.8496 4.51529 64.2948C4.21145 63.7135 4.15861 63.119 4.21145 62.4717C4.23787 62.049 4.31713 61.7583 4.46245 61.3884L7.58014 61.8244C7.31593 62.2471 7.13098 62.7227 7.09135 63.304C7.03851 64.0173 7.24988 64.5722 7.65941 65.0213C8.38599 65.8272 9.49567 65.9857 10.3808 66.0518L14.5817 66.382L14.3175 69.7243L3.97366 68.9052L3.96045 68.9184Z" fill="white"/>
<path d="M16.2591 51.4145C16.9196 52.5506 17.2235 54.2812 16.695 56.2232C16.1666 58.1783 15.0437 59.5126 13.8944 60.1731C12.613 60.9129 11.0409 61.0186 9.7595 60.6751C8.47808 60.3316 7.17023 59.4465 6.43044 58.1651C5.76991 57.029 5.46607 55.2984 5.99449 53.3565C6.52292 51.4013 7.64581 50.067 8.79513 49.4065C10.0766 48.6667 11.6486 48.561 12.93 48.9045C14.2115 49.248 15.5193 50.1331 16.2459 51.4145H16.2591ZM8.98008 56.1043C9.32355 56.6987 9.86519 57.1347 10.671 57.3593C11.5958 57.6103 12.2695 57.3989 12.7583 57.1215C13.2735 56.8308 13.7491 56.3288 13.9737 55.4702C14.1718 54.7568 14.0794 54.0831 13.7359 53.4754C13.3924 52.8677 12.8508 52.4449 12.0449 52.2204C11.2391 51.9958 10.5521 52.1147 9.95766 52.4582C9.36319 52.8016 8.95366 53.3433 8.7555 54.0831C8.55734 54.8228 8.63661 55.4966 8.98008 56.0911V56.1043Z" fill="white"/>
<path d="M4.72644 38.8777L20.1696 45.8529L18.7957 48.9045L3.35254 41.9293L4.72644 38.8777Z" fill="white"/>
<path d="M8.30762 32.2988L22.9713 40.7932L21.2936 43.6863L6.62988 35.1919L8.30762 32.2988Z" fill="white"/>
<path d="M34.7546 26.7505L32.4163 29.1416L31.518 28.2565C31.6897 29.1416 31.6633 30.4098 30.3687 31.7177C29.2986 32.8142 28.1625 33.2765 26.8679 33.2765C25.3487 33.2897 23.8955 32.6556 22.7594 31.5327C21.5308 30.3306 20.9496 28.8906 20.976 27.5035C20.9892 26.2485 21.5044 24.9671 22.4952 23.9499C23.2878 23.1308 24.4372 22.4967 25.8375 22.6949L20.3022 17.2917L22.6405 14.9006L34.7678 26.7505H34.7546ZM24.3711 27.1732C24.3711 27.847 24.6221 28.5471 25.2166 29.1416C25.7714 29.6832 26.4716 29.921 27.1453 29.8946C27.8587 29.8682 28.4664 29.5644 28.8759 29.1548C29.3118 28.7057 29.6553 27.9923 29.6553 27.2525C29.6553 26.7109 29.4704 26.0107 28.8627 25.403C28.2286 24.7821 27.5548 24.6104 26.9736 24.5972C26.2074 24.5972 25.6129 24.8878 25.1109 25.403C24.6353 25.8918 24.3711 26.4335 24.3579 27.1732H24.3711Z" fill="white"/>
<path d="M44.0144 18.9563C43.737 20.2377 42.8123 21.7173 41.1081 22.8137C39.4039 23.9102 37.6734 24.148 36.3919 23.8706C34.952 23.5535 33.7102 22.5892 32.9968 21.4663C32.2834 20.3434 31.9003 18.8241 32.2174 17.3842C32.4948 16.1028 33.4196 14.6232 35.1237 13.5267C36.8279 12.4302 38.5585 12.1924 39.8399 12.4699C41.2798 12.7869 42.5216 13.7513 43.235 14.8742C43.9484 15.9839 44.3315 17.5163 44.0144 18.9563ZM35.4804 17.5559C35.3351 18.2297 35.4408 18.9034 35.8899 19.6168C36.4051 20.4226 37.0525 20.7265 37.5941 20.8454C38.1754 20.9643 38.8623 20.9114 39.6021 20.4358C40.223 20.0263 40.6193 19.4715 40.7646 18.7977C40.9099 18.124 40.8043 17.4503 40.3551 16.7369C39.9059 16.0367 39.3247 15.6536 38.6509 15.5083C37.9772 15.363 37.3167 15.4819 36.6693 15.9046C36.022 16.3141 35.6389 16.869 35.4936 17.5559H35.4804Z" fill="white"/>
<path d="M52.6156 16.6708L50.6208 17.2917L42.6152 8.91624L46.1292 7.81977L50.317 12.2981L51.1493 6.1156L52.8402 5.58718L57.028 10.2109L57.9527 4.16044L61.4667 3.06396L59.604 14.5043L57.6092 15.1252L53.3686 10.2505L52.6288 16.6708H52.6156Z" fill="white"/>
<path d="M64.6367 3.15664L67.979 3.03775L68.0186 4.26633C68.9962 2.93206 70.1984 2.68106 71.1759 2.64143C72.0875 2.61501 73.2764 2.73391 74.188 3.59259C75.192 4.53054 75.3108 5.75912 75.3373 6.6046L75.5618 13.157L72.2196 13.2627L72.0346 7.93887C72.0082 7.26513 71.9554 6.40644 71.4137 5.89123C71.1495 5.64023 70.7268 5.45528 70.1191 5.46849C69.4189 5.49491 68.983 5.78555 68.7452 6.07618C68.2036 6.65744 68.1375 7.39723 68.1639 8.07097L68.3489 13.3948L65.0066 13.5137L64.6499 3.14343L64.6367 3.15664Z" fill="white"/>
<path d="M73.2378 42.1174V96.2807L87.7694 81.3582" stroke="white" stroke-width="3"/>
</svg>
