<svg width="40" height="40" viewBox="0 0 40 40" fill="none" xmlns="http://www.w3.org/2000/svg">
<path d="M16.0098 4.00017C12.8253 4.00017 9.77116 5.26523 7.51934 7.51705C5.26752 9.76887 4.00246 12.823 4.00246 16.0075C4.00246 19.1921 5.26752 22.2462 7.51934 24.498C9.77116 26.7499 12.8253 28.0149 16.0098 28.0149C19.1944 28.0149 22.2485 26.7499 24.5003 24.498C26.7522 22.2462 28.0172 19.1921 28.0172 16.0075C28.0172 12.823 26.7522 9.76887 24.5003 7.51705C22.2485 5.26523 19.1944 4.00017 16.0098 4.00017ZM9.88933e-08 16.0075C0.000364876 13.4597 0.60881 10.9487 1.77477 8.68333C2.94073 6.41793 4.63053 4.46351 6.70373 2.98251C8.77693 1.50152 11.1737 0.536708 13.6947 0.168276C16.2158 -0.200157 18.7884 0.0384253 21.1987 0.864194C23.609 1.68996 25.7874 3.07907 27.5529 4.91607C29.3184 6.75306 30.62 8.9849 31.3495 11.4261C32.0789 13.8673 32.2152 16.4473 31.7471 18.9518C31.2789 21.4562 30.2197 23.8128 28.6576 25.8256L39.4382 36.6062C39.8028 36.9836 40.0045 37.4891 39.9999 38.0139C39.9954 38.5386 39.7849 39.0405 39.4139 39.4116C39.0428 39.7826 38.5409 39.9931 38.0162 39.9976C37.4914 40.0022 36.9859 39.8005 36.6085 39.4359L25.8279 28.6553C23.4613 30.4926 20.6267 31.629 17.6464 31.9353C14.666 32.2416 11.6595 31.7054 8.9688 30.3877C6.27806 29.0701 4.01105 27.0239 2.42554 24.4817C0.840034 21.9396 -0.000332845 19.0036 9.88933e-08 16.0075Z" fill="#0D0D0D"/>
</svg>
