<?xml version="1.0" encoding="UTF-8" standalone="no"?>
<svg
   width="120"
   height="120"
   viewBox="-10 -18 200 200"
   fill="none"
   version="1.1"
   id="svg113"
   sodipodi:docname="logo-mono-white.svg"
   inkscape:version="1.2.2 (b0a8486541, 2022-12-01)"
   xmlns:inkscape="http://www.inkscape.org/namespaces/inkscape"
   xmlns:sodipodi="http://sodipodi.sourceforge.net/DTD/sodipodi-0.dtd"
   xmlns="http://www.w3.org/2000/svg"
   xmlns:svg="http://www.w3.org/2000/svg">
  <sodipodi:namedview
     id="namedview115"
     pagecolor="#ffffff"
     bordercolor="#666666"
     borderopacity="1.0"
     inkscape:showpageshadow="2"
     inkscape:pageopacity="0.0"
     inkscape:pagecheckerboard="0"
     inkscape:deskcolor="#d1d1d1"
     showgrid="false"
     inkscape:zoom="1"
     inkscape:cx="-97"
     inkscape:cy="65"
     inkscape:window-width="1878"
     inkscape:window-height="1012"
     inkscape:window-x="20"
     inkscape:window-y="46"
     inkscape:window-maximized="1"
     inkscape:current-layer="svg113" />
  <g
     clip-path="url(#clip0_3_178)"
     id="g106">
    <path
       d="m 59.0178,136.074 c -8.3688,-0.69 -16.8718,-0.922 -24.9923,1.414 -12.0935,3.346 -22.9051,11.034 -30.52224,20.865 -0.91943,1.295 -1.97979,2.642 -2.43614,4.136 0,0 0,0.033 0,0 -0.02014,-0.093 -0.06711,-0.179 -0.174493,-0.246 -0.0604,-0.033 -0.093956,-0.053 -0.154356,-0.066 -0.080533,-0.013 -0.1208,0 -0.127511,0 1.78516,-1.321 3.42939,-3.041 5.26824,-4.435 13.3216,-10.873 31.3075,-14.551 48.2329,-12.965 8.4896,0.671 16.8047,2.815 24.9722,5.052 6.134,1.574 12.1539,3.738 18.1939,5.55 10.02,2.828 20.697,2.489 30.797,0.106 l -0.214,2.47 C 116.734,153.202 105.425,148.926 93.9761,144.99 82.594,141.067 71.1247,136.904 59.0245,136.055 v 0.013 z m 0.0805,-1.241 c 12.2344,0.657 23.9454,4.674 35.4684,8.438 12.8923,4.215 25.7173,8.842 38.3073,13.887 l -4.235,0.883 c -10.496,2.284 -21.623,2.463 -31.9717,-0.644 -6.0669,-1.932 -11.966,-4.096 -18.1134,-5.749 -15.9591,-4.852 -33.0993,-7.8 -49.5685,-3.757 -8.1473,1.905 -15.8584,5.57 -22.42186,10.728 -1.78516,1.341 -3.3757,2.894 -5.18771,4.308 -0.18791,0.119 -0.516758,0.339 -0.832182,0.279 C 0.26178,163.159 0.00675723,162.887 4.60909e-5,162.608 -0.0402207,162.356 0.0671575,162.084 0.120847,161.905 c 0.617424,-1.54 1.597253,-2.828 2.550233,-4.143 2.57036,-3.385 5.55011,-6.426 8.78492,-9.174 14.4356,-12.082 29.1062,-15.474 47.6289,-13.755 z"
       fill="#ffffff"
       id="path86" />
    <path
       d="m 107.251,137.329 c -9.5705,-2.522 -18.8788,-5.543 -28.5965,-7.355 -4.7985,-1.003 -9.6708,-1.487 -14.5498,-0.989 -4.8656,0.445 -9.6506,1.633 -14.1873,3.432 -0.0135,0.013 -0.1812,-0.87 -0.1879,-0.87 15.3081,-0.657 30.5356,2.377 44.9847,7.249 13.0998,4.329 25.8518,10.237 39.6698,11.803 3.63,0.206 7.603,0.585 11.12,0.239 7.335,-0.683 12.134,-7.123 13.959,-13.854 l 1.946,1.978 c -8.939,2.098 -18.14,2.934 -27.26,2.563 -9.107,-0.339 -18.127,-1.952 -26.905,-4.202 z m 0.362,-1.487 c 17.355,4.182 35.744,5.012 52.998,0.04 l 2.805,-0.777 c 0,0 -0.852,2.762 -0.859,2.782 -1.886,6.366 -6.147,12.593 -12.718,14.857 -3.805,1.334 -8.046,0.956 -11.865,0.69 -5.147,-0.206 -10.288,-1.255 -15.174,-2.728 -9.798,-2.669 -19.126,-6.878 -28.6495,-10.237 -14.2344,-5.098 -29.1801,-8.377 -44.3942,-8.006 l -2.5234,0.04 2.3422,-0.909 c 6.9192,-2.749 14.4424,-4.09 21.9052,-3.671 7.4158,0.663 14.6235,2.516 21.8514,4.202 4.8119,1.181 9.4963,2.688 14.2743,3.737 z"
       fill="#ffffff"
       id="path88" />
    <path
       d="m 175.617,103.998 c -2.651,-4.78 -8.194,-7.8072 -13.637,-6.6322 l 1.745,-3.3325 c 6.49,11.7967 2.094,25.7967 -9.255,32.7337 -7.033,4.123 -15.469,4.183 -23.341,5.032 -10.02,0.837 -20.08,-0.186 -29.979,-1.639 0.262,-0.067 0.39,-0.452 0.182,-0.631 1.449,0.704 3.107,1.142 4.671,1.613 11.308,3.226 23.126,4.547 34.871,4.879 7.778,0.193 15.71,-0.916 22.583,-4.68 3.395,-1.772 6.677,-3.877 9.14,-6.791 4.638,-5.536 6.644,-14.06 3.02,-20.559 z m 2.342,-1.235 c 3.826,7.468 1.41,16.915 -4.06,22.936 -2.718,2.987 -6.255,5.085 -9.852,6.811 -7.167,3.571 -15.274,4.514 -23.2,4.208 -11.819,-0.511 -23.617,-1.772 -35.066,-4.826 -1.705,-0.531 -3.49,-0.849 -5.053,-1.746 -0.054,-0.073 -0.074,-0.039 -0.141,-0.225 -0.081,-0.259 0.127,-0.551 0.396,-0.584 2.221,0.092 4.382,0.584 6.57,0.763 7.765,0.81 15.65,1.016 23.422,0.212 3.872,-0.484 7.798,-0.962 11.603,-1.673 7.805,-1.254 14.167,-5.031 18.006,-11.982 3.624,-6.353 3.222,-14.359 -0.772,-20.3865 l -1.919,-2.9807 3.658,-0.3584 c 6.825,-0.1793 13.388,3.7905 16.388,9.8246 z"
       fill="#ffffff"
       id="path90" />
    <path
       d="m 27.7171,119.306 c -0.953,0.71 -1.6979,1.467 -2.2281,2.263 -0.6241,0.93 -0.6845,2.118 -0.1476,3.094 0.5436,1.002 1.5704,1.62 2.6844,1.62 0.3222,0 0.651,-0.047 0.9731,-0.146 0.9128,-0.292 1.8523,-0.804 2.8053,-1.514 2.9529,-2.217 6.5501,-6.984 8.7916,-10.714 0.0268,-0.047 0.0604,-0.093 0.0805,-0.14 -0.047,0.014 -0.0939,0.027 -0.1409,0.04 -4.2549,1.135 -9.8654,3.279 -12.825,5.497 z"
       fill="#ffffff"
       id="path92" />
    <path
       d="m 86.292,74.1978 c -1.4698,-0.0199 -3.6106,5.2576 -3.6375,7.8334 0,0.6173 0.4497,1.1351 0.9128,1.1418 0.5436,0 1.6106,-0.7634 2.3891,-2.3168 0.5503,-1.1286 1.6778,-5.0054 1.6845,-5.7622 0,-0.4315 -0.9127,-0.8962 -1.3489,-0.8962 z"
       fill="#ffffff"
       id="path94" />
    <path
       d="m 96.8284,76.1694 c 0,0 -2.9596,3.6578 -3.0938,4.9457 -0.1208,1.1219 0.8322,2.4827 1.3959,2.5425 0.9194,0.0929 1.7046,-1.1485 1.8053,-2.1044 0.2081,-1.9251 -0.2617,-3.9432 -0.1074,-5.3838 z"
       fill="#ffffff"
       id="path96" />
    <path
       d="m 30.9787,35.2168 c 3.9327,3.6046 9.6641,5.1779 11.3217,5.5762 0.349,0.0797 0.6913,0.1793 1.0201,0.2855 -0.1812,-0.385 -0.3356,-0.7833 -0.4765,-1.1883 -0.6912,-2.0114 -2.6912,-7.0633 -6.4293,-10.4887 -1.0402,-0.9493 -2.0938,-1.6596 -3.1341,-2.1044 -0.4899,-0.2124 -0.9731,-0.312 -1.4764,-0.312 -1.2282,0 -2.4563,0.697 -3.114,1.7791 -0.6778,1.1153 -0.7046,2.3633 -0.0805,3.525 0.5302,0.9958 1.3221,1.9716 2.3623,2.9276 z"
       fill="#ffffff"
       id="path98" />
    <path
       d="m 163.423,58.3518 c -0.456,-1.4604 -1.799,-2.4827 -3.342,-2.5425 h -0.316 c -1.046,0 -2.208,0.1925 -3.436,0.5643 -4.328,1.321 -10.187,5.2178 -13.885,8.1586 -0.168,0.1262 -0.336,0.2523 -0.503,0.3784 h 0.027 c 0.107,0 2.617,0.2324 5.939,0.2324 5.671,0 8.993,-0.6506 10.791,-1.195 1.356,-0.4115 2.504,-0.9625 3.416,-1.6264 1.235,-0.9094 1.765,-2.5027 1.309,-3.9631 z"
       fill="#ffffff"
       id="path100" />
    <path
       d="m 133.337,95.1619 c -4.047,-2.5691 -6.308,-7.1629 -5.859,-11.9027 0.168,-1.7327 0.222,-3.4919 0.155,-5.2378 -0.128,-3.7042 1.375,-7.2823 4.127,-9.7916 0.383,-0.3452 0.772,-0.6705 1.181,-0.9626 -0.403,-0.0465 -0.812,-0.1062 -1.208,-0.1925 -3.765,-0.7834 -6.979,-3.1865 -8.765,-6.5654 -1.738,-3.2993 -3.919,-6.3331 -6.483,-9.0349 -2.691,-2.8346 -3.926,-6.7248 -3.348,-10.5684 0.577,-3.8437 2.892,-7.2226 6.301,-9.161 2.698,-1.5468 7.685,-4.8262 10.698,-9.4598 1.007,-1.5335 1.684,-3.0338 2.027,-4.4544 0.349,-1.4339 0.047,-2.8412 -0.859,-3.9631 -0.893,-1.1219 -2.383,-1.8389 -3.792,-1.8389 -1.061,0 -2,0.332 -2.879,1.0024 -1.168,0.8896 -2.262,2.1243 -3.262,3.6578 -3.067,4.7067 -4.147,10.5485 -4.516,13.6221 -0.457,3.8171 -2.645,7.2292 -5.94,9.2738 -2.074,1.2879 -4.443,1.9451 -6.838,1.9451 -1.41,0 -2.826,-0.2257 -4.1882,-0.6904 -1.9664,-0.6705 -4.0133,-1.1949 -6.0669,-1.5667 -3.624,-0.6505 -6.7916,-2.8014 -8.7043,-5.9148 -1.9127,-3.1134 -2.3892,-6.884 -1.302,-10.3692 1.1812,-3.7972 2.4563,-9.4531 1.7785,-14.77053 C 85.3391,6.18038 84.829,4.40128 84.0841,2.92091 83.1646,1.09534 81.3795,0 79.3326,0 c -2.5972,0 -4.7179,1.67952 -5.2548,4.17557 -0.349,1.61314 -0.396,3.45862 -0.1343,5.49662 0.6577,5.11161 3.0066,10.08381 4.8656,13.36311 1.8389,3.2396 2.1543,7.1164 0.859,10.6083 -1.2952,3.4918 -4.0669,6.2467 -7.5903,7.5478 -3.4025,1.2547 -6.6238,2.9409 -9.57,5.0121 -2.208,1.5533 -4.8186,2.3566 -7.4561,2.3566 -1.3288,0 -2.6643,-0.2058 -3.9663,-0.6174 -0.0268,0 -0.0537,-0.0199 -0.0805,-0.0265 0.0335,0.0597 0.0604,0.1195 0.0805,0.1792 1.6174,3.6511 1.4026,7.84 -0.5704,11.3185 -1.1141,1.9584 -2.0738,4.0296 -2.8456,6.1406 -1.8522,5.0717 -6.7178,8.3976 -12.0934,8.3976 -0.3087,0 -0.6309,0 -0.9463,-0.0332 -0.4094,-0.0332 -0.8053,-0.0531 -1.114,-0.0531 h -0.1812 c -1.3624,0 -2.5771,0.1792 -3.6241,0.5311 -1.463,0.4912 -2.4495,1.8454 -2.4629,3.3789 -0.0135,1.5335 0.9529,2.9077 2.4093,3.4255 1.0536,0.385 2.3019,0.5775 3.7112,0.5908 h 0.1611 c 0.1879,0 0.3825,0 0.5704,-0.0133 0.1544,0 0.302,0 0.4497,0 5.6843,0 10.7244,3.7042 12.3418,9.1345 0.5436,1.8255 1.2214,3.6246 2.02,5.3638 1.557,3.3989 1.5234,7.3019 -0.0805,10.6809 -0.2014,0.419 -0.4228,0.83 -0.6711,1.222 0.4429,-0.12 0.8992,-0.226 1.3556,-0.299 0.7114,-0.119 1.4362,-0.179 2.1476,-0.179 3.0066,0 5.9393,1.035 8.2748,2.981 0.4899,0.411 1,0.816 1.5033,1.194 3.7784,2.848 5.6575,7.522 4.8991,12.155 -0.1678,1.029 -0.208,1.992 -0.1006,2.855 0.2147,1.819 1.7851,3.193 3.6575,3.193 1.2617,0 2.3758,-0.611 3.0536,-1.686 0.1812,-0.279 0.3557,-0.591 0.51,-0.916 2.1342,-4.448 6.6642,-7.276 11.6237,-7.276 h 0.3155 c 0.3556,0.013 0.7113,0.013 1.067,0.013 1.906,0 3.812,-0.126 5.6776,-0.385 0.5839,-0.079 1.1678,-0.119 1.7517,-0.119 5.5232,0 10.5302,3.525 12.2482,8.855 0.791,2.443 1.449,3.904 1.852,4.687 0.651,1.248 1.463,2.237 2.402,2.954 0.953,0.717 2.249,1.135 3.551,1.135 l -0.034,0.027 c 1.396,0 2.725,-0.524 3.55,-1.394 1.128,-1.188 1.269,-2.808 1.188,-3.957 -0.08,-1.287 -0.416,-2.476 -1.027,-3.644 -0.302,-0.584 -0.758,-1.467 -2.221,-3.127 -4.416,-5.005 -4.195,-12.52 0.503,-17.266 0.269,-0.273 0.537,-0.545 0.792,-0.823 0.302,-0.332 0.604,-0.664 0.899,-1.003 2.477,-2.828 6.041,-4.388 9.725,-4.388 0.993,0 1.986,0.106 2.98,0.345 0.55,0.126 1.1,0.213 1.617,0.239 0.081,0 0.161,0 0.235,0 1.55,0 2.812,-0.863 3.376,-2.317 0.557,-1.4401 0.208,-2.9204 -0.953,-3.956 -0.363,-0.3253 -0.772,-0.6373 -1.228,-0.9228 z M 56.6557,89.2138 c -2.1879,0.551 -5.7582,-1.1285 -6.1474,-2.6354 -0.2014,-0.7834 1.0872,-3.0736 1.6106,-3.2064 0.2886,-0.0796 1.2416,0.3519 1.3087,0.6108 0.0872,0.3385 -0.3154,1.4936 -0.1409,2.1707 0.1476,0.5709 1.5771,1.653 2.2079,1.4937 1.5235,-0.3851 2.7449,-3.0471 2.4228,-4.3017 -0.6376,-2.4762 -6.3354,-1.3078 -7.2011,-4.6469 -0.7047,-2.7351 2.4831,-8.3047 4.5904,-8.8424 1.1074,-0.2788 4.4025,0.8563 4.7381,2.1641 0.1946,0.7568 -0.2685,2.5425 -0.6577,3.7706 -0.094,0.2722 -0.1812,0.4913 -0.3893,0.5377 -0.416,0.1063 -1.5368,-0.1991 -1.6576,-0.6638 -0.047,-0.1859 0,-0.4182 0.0604,-0.7634 0.1342,-1.0024 0.2684,-2.0911 0.0872,-2.7948 -0.0939,-0.3651 -0.7852,-0.6638 -1.1811,-0.5576 h 0.0134 c -1.0537,0.2722 -3.0737,4.5008 -2.5167,6.6583 0.6778,2.6288 6.3488,1.2547 7.0266,3.8835 0.5771,2.2372 -1.9999,6.5787 -4.1609,7.123 z m 52.9773,-1.8123 c -0.906,-0.1593 -2.798,-1.487 -2.63,-2.4429 0.295,-1.6928 2.852,-6.5189 3.026,-7.5213 0.074,-0.4514 -0.335,-0.9294 -0.684,-0.9892 -0.644,-0.1062 -2.416,0.5909 -2.967,1.6729 -1.12,2.1243 -3.16,6.7115 -3.489,7.5014 -0.141,0.332 -0.296,0.5776 -0.671,0.5178 -0.457,-0.073 -1.638,-0.9028 -1.537,-1.4405 0.027,-0.146 0.161,-0.5244 0.376,-1.0489 -1.6111,1.2149 -3.5708,1.9783 -5.6177,1.7659 -1.1073,-0.1063 -2.4428,-1.3609 -3.322,-2.6554 -0.9329,1.3277 -1.9194,2.2438 -3.1274,2.2371 -1.2214,-0.0132 -2.8455,-0.9957 -3.0536,-1.7525 0,0 -1.6442,1.7061 -3.0334,1.6928 -0.8657,-0.0133 -2.3489,-0.9692 -2.8656,-2.0115 -0.7852,1.3941 -1.6577,2.3832 -2.8389,2.4895 -0.9194,0.0796 -3.0938,-0.717 -3.1877,-1.6862 -0.0135,-0.166 -0.0068,-0.4249 0.0201,-0.7568 -0.5503,0.5975 -1.2617,1.0954 -2.1543,1.248 -0.4563,0.0797 -1.3288,0.0797 -1.3288,0.0797 -0.651,1.1949 -1.604,2.2504 -2.7784,2.4496 -1.6308,0.2721 -3.3086,-0.6506 -3.3086,-0.6506 0,0 -0.3221,6.0476 -0.3691,6.8973 -0.0201,0.3585 -0.0805,0.644 -0.4564,0.6971 -0.4563,0.0796 -1.8455,-0.3187 -1.9395,-0.8431 -0.1476,-0.8696 0.7315,-11.0729 1.2617,-17.5321 0.0201,-0.385 0.3893,-0.6373 0.7651,-0.697 0.4563,-0.0797 1.859,1.0488 1.859,1.0488 0,0 1.4361,-1.6065 2.7247,-1.8122 1.2617,-0.2125 3.1811,0.8829 3.4025,2.2172 0.2618,1.5335 0.2618,4.4477 -0.4228,6.7446 0.2282,0.0465 0.3624,0.0199 0.4161,0.0133 1.8389,-0.3054 2.6778,-3.0072 2.7919,-3.3856 0.6509,-4.222 1.7381,-10.0572 1.9328,-11.199 0.0738,-0.4116 0.302,-0.5908 0.5436,-0.6174 h -0.0135 c 0.4027,-0.0332 1.9127,0.6439 1.9463,1.0422 0.0201,0.2191 -0.0202,0.405 -0.0537,0.624 -0.2148,1.2348 -2.369,12.8919 -2.2952,13.642 0.047,0.5112 0.463,0.8763 0.7583,0.8497 0.8121,-0.073 2.0536,-2.3168 3.161,-4.846 0,0 0.0134,-0.0332 0.0402,-0.0863 1.0537,-3.1931 3.1677,-6.5455 4.7851,-6.5256 1.4697,0.0133 3.275,1.3144 3.275,1.3144 0.7047,0 2.0671,0.1261 2.0603,0.7966 0,0.8365 -1.9596,6.6717 -1.973,8.0193 0,0.5642 0.3489,0.9161 0.6442,0.9227 0.5034,0 1.255,-0.8033 2.0738,-1.9849 -0.1477,-0.3784 -0.2148,-0.7236 -0.1879,-0.9891 0.1208,-1.0887 1.369,-1.4937 1.7851,-1.6065 0.0671,-0.0996 0.2014,-0.2788 0.3826,-0.3651 0.7315,-1.0091 2.9864,-4.0959 3.879,-5.2643 0.1946,-0.2788 0.5503,-0.5643 0.9328,-0.5244 0.3557,0.0398 1.2416,0.8829 1.1879,1.3675 -0.2751,2.589 0.6309,5.3306 0.4161,7.3354 -0.1074,1.0091 -1.1208,2.0712 -1.1208,2.0712 1.1678,-0.3983 2.3761,-1.1285 3.8791,-3.2063 1.745,-3.9233 4.201,-9.1876 4.926,-10.6149 0.174,-0.3784 0.443,-0.4979 0.691,-0.4514 0.396,0.0664 1.678,1.102 1.611,1.4936 -0.04,0.2125 -0.121,0.3851 -0.215,0.5909 -1.007,2.1176 -2.06,4.3681 -2.06,4.3681 0,0 2,-1.0489 3.61,-0.7701 0.779,0.1328 1.926,1.4472 1.752,2.423 -0.221,1.2414 -2.926,6.1804 -3.174,7.5811 -0.088,0.5045 0.221,0.9692 0.51,1.0091 0.805,0.1394 2.583,-1.7128 4.315,-3.8703 0,0 0.322,-0.4315 0.671,-0.3783 0.349,0.0597 0.631,0.3518 0.571,0.6704 -0.061,0.3187 -0.511,0.863 -0.511,0.863 -1.939,2.3899 -3.664,4.5806 -5.597,4.2486 z m 8.47,-1.0555 c -0.208,0.8896 -1.141,2.5492 -1.94,2.3766 -0.61,-0.1328 -1.537,-0.8165 -1.409,-1.3874 0.208,-0.8896 1.248,-2.5359 1.986,-2.3633 0.611,0.1261 1.484,0.7966 1.356,1.3741 z m 7.744,-13.4959 c -0.047,0.2124 -0.134,0.3585 -0.315,0.6439 l -6.335,10.4224 c -0.134,0.219 -0.322,0.312 -0.557,0.2589 -0.376,-0.0797 -1.141,-0.5046 -1.047,-0.8962 0.033,-0.1328 0.168,-0.4846 0.262,-0.6572 l 5.328,-11.0928 c 0.094,-0.1726 0.356,-0.332 0.671,-0.2589 0.349,0.0796 1.101,0.5443 1.738,1.0488 0.235,0.1926 0.316,0.3187 0.269,0.5311 z"
       fill="#ffffff"
       id="path102" />
    <path
       d="m 67.8632,75.6979 c -0.6711,0.1129 -2.1408,1.3343 -2.3757,2.5425 -0.3155,1.5534 -0.6913,4.6934 -0.4765,5.9348 0.1208,0.7103 1.1476,1.2281 1.7382,1.1285 0.51,-0.0797 0.9999,-0.7634 1.208,-1.1285 -0.4631,-0.1394 -0.698,-0.2324 -0.745,-0.5045 -0.0872,-0.5311 0.698,-1.6995 1.4563,-1.819 0.3893,-1.726 0.4229,-4.3216 0.2484,-5.324 -0.0873,-0.5311 -0.6242,-0.9028 -1.047,-0.8364 z"
       fill="#ffffff"
       id="path104" />
  </g>
  <defs
     id="defs111">
    <clipPath
       id="clip0_3_178">
      <rect
         width="179.825"
         height="163.226"
         fill="#ffffff"
         id="rect108"
         x="0"
         y="0" />
    </clipPath>
  </defs>
</svg>
