<?xml version="1.0" encoding="UTF-8" standalone="no"?>
<svg
   width="120"
   height="120"
   viewBox="34 20 120 120"
   fill="none"
   version="1.1"
   id="svg165"
   sodipodi:docname="logo.svg"
   inkscape:version="1.2.2 (b0a8486541, 2022-12-01)"
   xmlns:inkscape="http://www.inkscape.org/namespaces/inkscape"
   xmlns:sodipodi="http://sodipodi.sourceforge.net/DTD/sodipodi-0.dtd"
   xmlns="http://www.w3.org/2000/svg"
   xmlns:svg="http://www.w3.org/2000/svg">
  <defs
     id="defs169" />
  <sodipodi:namedview
     id="namedview167"
     pagecolor="#ffffff"
     bordercolor="#666666"
     borderopacity="1.0"
     inkscape:showpageshadow="2"
     inkscape:pageopacity="0.0"
     inkscape:pagecheckerboard="0"
     inkscape:deskcolor="#d1d1d1"
     showgrid="false"
     inkscape:zoom="4.2758621"
     inkscape:cx="184.99194"
     inkscape:cy="83.491935"
     inkscape:window-width="1878"
     inkscape:window-height="1012"
     inkscape:window-x="20"
     inkscape:window-y="46"
     inkscape:window-maximized="1"
     inkscape:current-layer="svg165" />
  <path
     d="m 57.0505,91.2613 c 3.0042,-1.4702 6.1363,-2.1884 9.3173,-2.9479 3.0305,-0.6843 6.0498,-1.2709 9.0879,-1.7484 7.5914,-1.1581 15.2618,-2.0717 22.9698,-1.8424 7.6515,0.2933 15.2465,1.7183 22.6955,3.3652 2.978,0.658 5.922,1.3837 8.881,2.1695 0.451,0.1204 0.718,0.5828 0.602,1.034 -0.121,0.455 -0.594,0.7257 -1.046,0.5979 -11.592,-2.8501 -23.628,-5.0647 -35.5956,-4.0947 -5.9446,0.534 -11.8778,1.5379 -17.6946,2.9028 -2.9102,0.6843 -5.8054,1.4363 -8.6292,2.3236 -2.6395,0.8724 -5.4294,1.7372 -7.7719,3.1547 -1.3047,0.861 -3.0644,0.5038 -3.9254,-0.8047 -0.9438,-1.4062 -0.4061,-3.3652 1.1129,-4.1059 z"
     fill="#1e6188"
     id="path113" />
  <path
     d="m 76.155,112.535 c -5.0045,-0.346 -10.2422,-0.71 -16.4688,1.463 -11.6936,4.08 -18.1946,14.066 -17.7058,14.608 0.3497,0.387 3.9706,-4.456 11.7726,-7.603 10.3475,-4.174 20.7439,-2.422 24.0564,-1.861 2.8276,0.477 5.2302,1.139 9.4076,2.286 7.6779,2.109 9.4601,3.207 13.265,4.027 3.662,0.789 9.062,1.293 16.18,-0.327 -6.93,-2.869 -12.762,-4.99 -16.9167,-6.426 -10.9266,-3.783 -16.5365,-5.682 -23.5865,-6.17 z"
     fill="#1e6188"
     id="path115" />
  <path
     d="m 104.423,112.832 c -4.4672,-1.064 -5.6215,-1.718 -12.5662,-3.316 -5.9145,-1.361 -8.0314,-1.568 -9.9753,-1.575 -4.7752,-0.019 -8.6517,1.169 -11.1747,2.18 3.6698,-0.09 8.9751,0.079 15.2092,1.388 2.6395,0.552 4.4857,1.109 6.9823,1.861 8.9597,2.7 11.3247,4.444 20.0937,6.967 3.617,1.042 5.689,1.455 8.103,1.598 3.673,0.218 6.181,0.527 8.723,-0.729 3.944,-1.952 5.433,-6.204 5.918,-7.881 -2.181,0.564 -5.437,1.271 -9.445,1.605 -9.475,0.79 -17.251,-1 -21.872,-2.098 z"
     fill="#1e6188"
     id="path117" />
  <path
     d="m 144.956,93.5811 c -0.339,-0.6316 -1.783,-3.226 -4.915,-4.3691 -1.59,-0.5828 -3.012,-0.5677 -3.861,-0.4925 0.68,1.1768 2.056,3.9405 1.812,7.5463 -0.353,5.2192 -3.85,8.4412 -4.783,9.2762 -3.463,3.094 -7.399,3.542 -14.028,4.294 -4.851,0.552 -9.036,0.282 -11.209,0.135 -4.583,-0.312 -7.275,-0.948 -7.309,-0.79 -0.053,0.264 7.392,2.681 16.578,3.46 7.58,0.643 13.919,1.098 20.364,-2.328 2.105,-1.12 5.377,-2.918 7.163,-6.757 0.349,-0.748 2.571,-5.5268 0.184,-9.9749 z"
     fill="#1e6188"
     id="path119" />
  <path
     d="m 76.155,111.407 c -5.0045,-0.346 -10.2422,-0.71 -16.4688,1.463 -11.6936,4.08 -18.1946,14.066 -17.7058,14.608 0.3497,0.387 3.9706,-4.456 11.7726,-7.603 10.3475,-4.174 20.7439,-2.422 24.0564,-1.861 2.8276,0.477 5.2302,1.139 9.4076,2.286 7.6779,2.109 9.4601,3.207 13.265,4.027 3.662,0.789 9.062,1.293 16.18,-0.327 -6.93,-2.869 -12.762,-4.99 -16.9167,-6.426 -10.9266,-3.783 -16.5365,-5.682 -23.5865,-6.17 z"
     fill="#229acd"
     id="path121" />
  <path
     d="m 104.423,111.704 c -4.4672,-1.064 -5.6215,-1.718 -12.5662,-3.316 -5.9145,-1.361 -8.0314,-1.568 -9.9753,-1.576 -4.7752,-0.018 -8.6517,1.17 -11.1747,2.181 3.6698,-0.09 8.9751,0.079 15.2092,1.388 2.6395,0.552 4.4857,1.109 6.9823,1.861 8.9597,2.7 11.3247,4.444 20.0937,6.967 3.617,1.042 5.689,1.455 8.103,1.598 3.673,0.218 6.181,0.527 8.723,-0.729 3.944,-1.952 5.433,-6.204 5.918,-7.881 -2.181,0.564 -5.437,1.271 -9.445,1.605 -9.475,0.79 -17.251,-1 -21.872,-2.098 z"
     fill="#229acd"
     id="path123" />
  <path
     d="m 144.956,92.4531 c -0.339,-0.6317 -1.783,-3.2261 -4.915,-4.3691 -1.59,-0.5828 -3.012,-0.5678 -3.861,-0.4926 0.68,1.1769 2.056,3.9405 1.812,7.5463 -0.353,5.2193 -3.85,8.4413 -4.783,9.2763 -3.463,3.094 -7.399,3.542 -14.028,4.294 -4.851,0.552 -9.036,0.282 -11.209,0.135 -4.583,-0.312 -7.275,-0.948 -7.309,-0.79 -0.053,0.264 7.392,2.681 16.578,3.46 7.58,0.642 13.919,1.097 20.364,-2.328 2.105,-1.12 5.377,-2.918 7.163,-6.757 0.349,-0.748 2.571,-5.5268 0.184,-9.9749 z"
     fill="#229acd"
     id="path125" />
  <path
     d="m 108.22,113.652 c -0.763,0 -1.519,-0.244 -2.075,-0.669 -0.557,-0.425 -1.019,-0.997 -1.403,-1.745 -0.237,-0.462 -0.62,-1.323 -1.083,-2.767 -1.003,-3.151 -3.9288,-5.238 -7.1586,-5.238 -0.3384,0 -0.6806,0.023 -1.0227,0.071 -1.0867,0.151 -2.2034,0.226 -3.3163,0.226 -0.2068,0 -0.4174,0 -0.6242,-0.007 -0.0602,0 -0.1241,0 -0.1842,0 -2.899,0 -5.546,1.669 -6.7944,4.297 -0.0902,0.192 -0.1917,0.376 -0.297,0.545 -0.3986,0.632 -1.049,0.997 -1.786,0.997 -1.0942,0 -2.0116,-0.812 -2.1357,-1.888 -0.0601,-0.511 -0.0376,-1.079 0.0602,-1.688 0.4437,-2.741 -0.6543,-5.501 -2.8614,-7.1853 -0.297,-0.2256 -0.5941,-0.4625 -0.8798,-0.7031 -1.3649,-1.1468 -3.0795,-1.7597 -4.8354,-1.7597 -0.4173,0 -0.8385,0.0339 -1.2558,0.1053 -0.267,0.0451 -0.5339,0.1053 -0.7934,0.1767 0.1429,-0.2331 0.2745,-0.4737 0.3911,-0.7219 0.94,-1.9966 0.9588,-4.3014 0.0488,-6.3093 -0.4662,-1.0265 -0.861,-2.0905 -1.1806,-3.1697 -0.9438,-3.2072 -3.8878,-5.3956 -7.2117,-5.3956 -0.0827,0 -0.1654,0 -0.2481,0.0038 -0.1128,0 -0.2219,0.0075 -0.3309,0.0075 h -0.1128 c -0.8084,-0.0075 -1.5454,-0.1241 -2.1695,-0.3497 -0.846,-0.3045 -1.4138,-1.1167 -1.4063,-2.0228 0.0075,-0.9024 0.5866,-1.7071 1.4401,-1.9966 0.6091,-0.2068 1.3235,-0.3121 2.1206,-0.3121 h 0.1016 c 0.1842,0 0.4098,0.0113 0.6504,0.0301 0.188,0.015 0.3723,0.0188 0.5565,0.0188 3.1434,0 5.9859,-1.9665 7.0688,-4.9632 0.4512,-1.2483 1.0115,-2.4703 1.6619,-3.6284 1.1544,-2.053 1.2784,-4.527 0.3347,-6.6853 -0.0151,-0.0376 -0.0301,-0.0714 -0.0489,-0.1053 0.015,0.0038 0.0301,0.0113 0.0451,0.0151 0.7595,0.2444 1.5379,0.3647 2.3162,0.3647 1.5416,0 3.0681,-0.4738 4.3578,-1.3912 1.7221,-1.2258 3.6059,-2.2222 5.5911,-2.9629 2.0605,-0.767 3.6811,-2.3951 4.4368,-4.4593 0.7558,-2.0643 0.5716,-4.3541 -0.5038,-6.268 -1.0866,-1.9364 -2.459,-4.8729 -2.8426,-7.8922 -0.1504,-1.207 -0.124,-2.3011 0.079,-3.2524 0.3158,-1.4739 1.5529,-2.4666 3.0719,-2.4666 1.1995,0 2.241,0.6468 2.7787,1.7259 0.4361,0.8685 0.7332,1.9213 0.8836,3.1283 0.3985,3.1434 -0.346,6.4822 -1.0378,8.7307 -0.6354,2.0567 -0.3572,4.2864 0.7595,6.1251 1.1167,1.8386 2.9704,3.1095 5.0873,3.493 1.1994,0.2181 2.3914,0.5264 3.5452,0.925 0.798,0.2744 1.625,0.4098 2.448,0.4098 1.399,0 2.783,-0.391 3.997,-1.1506 1.925,-1.2069 3.204,-3.2223 3.471,-5.4783 0.214,-1.8123 0.846,-5.264 2.639,-8.0464 0.583,-0.9061 1.226,-1.6356 1.906,-2.1657 0.512,-0.3986 1.065,-0.5941 1.685,-0.5941 0.823,0 1.696,0.4249 2.215,1.0866 0.526,0.6655 0.703,1.4965 0.5,2.3425 -0.2,0.8385 -0.598,1.7258 -1.185,2.632 -1.763,2.7373 -4.677,4.6774 -6.256,5.5874 -1.989,1.1468 -3.343,3.1433 -3.681,5.4144 -0.335,2.271 0.387,4.5721 1.959,6.2453 1.5,1.598 2.774,3.3915 3.79,5.3392 1.041,1.9966 2.921,3.4179 5.121,3.8803 0.233,0.0489 0.47,0.0865 0.707,0.1128 -0.241,0.173 -0.47,0.3648 -0.692,0.5678 -1.606,1.4852 -2.486,3.5983 -2.41,5.7866 0.037,1.0303 0.007,2.0718 -0.091,3.0945 -0.263,2.7975 1.057,5.5084 3.422,7.0275 0.267,0.1729 0.508,0.3534 0.718,0.5452 0.677,0.6128 0.887,1.4889 0.557,2.3425 -0.331,0.8572 -1.068,1.3686 -1.974,1.3686 -0.046,0 -0.094,0 -0.14,-0.0038 -0.3,-0.0188 -0.62,-0.0677 -0.943,-0.1429 -0.579,-0.1391 -1.162,-0.203 -1.741,-0.203 -2.151,0 -4.234,0.925 -5.682,2.5944 -0.172,0.1993 -0.349,0.3948 -0.526,0.5903 -0.15,0.1655 -0.312,0.3309 -0.47,0.4963 -2.741,2.7975 -2.873,7.2304 -0.304,10.1894 0.752,0.869 1.135,1.485 1.319,1.846 0.354,0.692 0.553,1.395 0.602,2.151 0.045,0.681 -0.038,1.636 -0.696,2.339 -0.481,0.515 -1.259,0.823 -2.075,0.823 z m -50.2032,-6.531 c -0.6505,0 -1.2521,-0.369 -1.5679,-0.959 -0.3121,-0.575 -0.2783,-1.278 0.0865,-1.831 0.3083,-0.466 0.7444,-0.917 1.3009,-1.339 1.7334,-1.316 5.0121,-2.579 7.4937,-3.252 0.0301,-0.0075 0.0564,-0.015 0.0827,-0.0226 -0.015,0.0264 -0.0338,0.0564 -0.0489,0.0828 -1.3122,2.2068 -3.414,5.0238 -5.1399,6.3318 -0.5565,0.421 -1.1054,0.722 -1.6393,0.895 -0.188,0.06 -0.3798,0.09 -0.5678,0.09 z M 128.081,70.9948 c -1.937,0 -3.407,-0.1316 -3.471,-0.1354 -0.004,0 -0.011,0 -0.015,0 0.098,-0.0714 0.196,-0.1466 0.293,-0.2218 2.162,-1.7371 5.588,-4.042 8.114,-4.8241 0.719,-0.2218 1.392,-0.3346 2.005,-0.3346 0.063,0 0.127,0 0.191,0 0.899,0.0338 1.681,0.6354 1.948,1.5002 0.267,0.8611 -0.041,1.8048 -0.767,2.3387 -0.534,0.3948 -1.203,0.7182 -1.997,0.9626 -1.045,0.3234 -2.993,0.7106 -6.305,0.7106 z M 66.9618,56.7782 C 66.7663,56.7143 66.567,56.6579 66.364,56.609 c -0.9701,-0.2331 -4.3202,-1.1656 -6.6176,-3.2937 -0.6091,-0.564 -1.0716,-1.1468 -1.3837,-1.7334 -0.3609,-0.6843 -0.3459,-1.425 0.0489,-2.0793 0.3873,-0.6392 1.1017,-1.0528 1.8198,-1.0528 0.2933,0 0.5753,0.0602 0.8611,0.1843 0.6053,0.2632 1.2257,0.6843 1.8311,1.2445 2.1808,2.0229 3.3539,5.0084 3.7562,6.1965 0.0828,0.2407 0.173,0.4738 0.2783,0.7031 z"
     fill="#1e6188"
     id="path127" />
  <path
     d="m 108.22,113.652 c -0.763,0 -1.519,-0.244 -2.075,-0.669 -0.557,-0.425 -1.019,-0.997 -1.403,-1.745 -0.237,-0.462 -0.62,-1.323 -1.083,-2.767 -1.003,-3.151 -3.9288,-5.238 -7.1586,-5.238 -0.3384,0 -0.6806,0.023 -1.0227,0.071 -1.0867,0.151 -2.2034,0.226 -3.3163,0.226 -0.2068,0 -0.4174,0 -0.6242,-0.007 -0.0602,0 -0.1241,0 -0.1842,0 -2.899,0 -5.546,1.669 -6.7944,4.297 -0.0902,0.192 -0.1917,0.376 -0.297,0.545 -0.3986,0.632 -1.049,0.997 -1.786,0.997 -1.0942,0 -2.0116,-0.812 -2.1357,-1.888 -0.0601,-0.511 -0.0376,-1.079 0.0602,-1.688 0.4437,-2.741 -0.6543,-5.501 -2.8614,-7.1853 -0.297,-0.2256 -0.5941,-0.4625 -0.8798,-0.7031 -1.3649,-1.1468 -3.0795,-1.7597 -4.8354,-1.7597 -0.4173,0 -0.8385,0.0339 -1.2558,0.1053 -0.267,0.0451 -0.5339,0.1053 -0.7934,0.1767 0.1429,-0.2331 0.2745,-0.4737 0.3911,-0.7219 0.94,-1.9966 0.9588,-4.3014 0.0488,-6.3093 -0.4662,-1.0265 -0.861,-2.0905 -1.1806,-3.1697 -0.9438,-3.2072 -3.8878,-5.3956 -7.2117,-5.3956 -0.0827,0 -0.1654,0 -0.2481,0.0038 -0.1128,0 -0.2219,0.0075 -0.3309,0.0075 h -0.1128 c -0.8084,-0.0075 -1.5454,-0.1241 -2.1695,-0.3497 -0.846,-0.3045 -1.4138,-1.1167 -1.4063,-2.0228 0.0075,-0.9024 0.5866,-1.7071 1.4401,-1.9966 0.6091,-0.2068 1.3235,-0.3121 2.1206,-0.3121 h 0.1016 c 0.1842,0 0.4098,0.0113 0.6504,0.0301 0.188,0.015 0.3723,0.0188 0.5565,0.0188 3.1434,0 5.9859,-1.9665 7.0688,-4.9632 0.4512,-1.2483 1.0115,-2.4703 1.6619,-3.6284 1.1544,-2.053 1.2784,-4.527 0.3347,-6.6853 -0.0151,-0.0376 -0.0301,-0.0714 -0.0489,-0.1053 0.015,0.0038 0.0301,0.0113 0.0451,0.0151 0.7595,0.2444 1.5379,0.3647 2.3162,0.3647 1.5416,0 3.0681,-0.4738 4.3578,-1.3912 1.7221,-1.2258 3.6059,-2.2222 5.5911,-2.9629 2.0605,-0.767 3.6811,-2.3951 4.4368,-4.4593 0.7558,-2.0643 0.5716,-4.3541 -0.5038,-6.268 -1.0866,-1.9364 -2.459,-4.8729 -2.8426,-7.8922 -0.1504,-1.207 -0.124,-2.3011 0.079,-3.2524 0.3158,-1.4739 1.5529,-2.4666 3.0719,-2.4666 1.1995,0 2.241,0.6468 2.7787,1.7259 0.4361,0.8685 0.7332,1.9213 0.8836,3.1283 0.3985,3.1434 -0.346,6.4822 -1.0378,8.7307 -0.6354,2.0567 -0.3572,4.2864 0.7595,6.1251 1.1167,1.8386 2.9704,3.1095 5.0873,3.493 1.1994,0.2181 2.3914,0.5264 3.5452,0.925 0.798,0.2744 1.625,0.4098 2.448,0.4098 1.399,0 2.783,-0.391 3.997,-1.1506 1.925,-1.2069 3.204,-3.2223 3.471,-5.4783 0.214,-1.8123 0.846,-5.264 2.639,-8.0464 0.583,-0.9061 1.226,-1.6356 1.906,-2.1657 0.512,-0.3986 1.065,-0.5941 1.685,-0.5941 0.823,0 1.696,0.4249 2.215,1.0866 0.526,0.6655 0.703,1.4965 0.5,2.3425 -0.2,0.8385 -0.598,1.7258 -1.185,2.632 -1.763,2.7373 -4.677,4.6774 -6.256,5.5874 -1.989,1.1468 -3.343,3.1433 -3.681,5.4144 -0.335,2.271 0.387,4.5721 1.959,6.2453 1.5,1.598 2.774,3.3915 3.79,5.3392 1.041,1.9966 2.921,3.4179 5.121,3.8803 0.233,0.0489 0.47,0.0865 0.707,0.1128 -0.241,0.173 -0.47,0.3648 -0.692,0.5678 -1.606,1.4852 -2.486,3.5983 -2.41,5.7866 0.037,1.0303 0.007,2.0718 -0.091,3.0945 -0.263,2.7975 1.057,5.5084 3.422,7.0275 0.267,0.1729 0.508,0.3534 0.718,0.5452 0.677,0.6128 0.887,1.4889 0.557,2.3425 -0.331,0.8572 -1.068,1.3686 -1.974,1.3686 -0.046,0 -0.094,0 -0.14,-0.0038 -0.3,-0.0188 -0.62,-0.0677 -0.943,-0.1429 -0.579,-0.1391 -1.162,-0.203 -1.741,-0.203 -2.151,0 -4.234,0.925 -5.682,2.5944 -0.172,0.1993 -0.349,0.3948 -0.526,0.5903 -0.15,0.1655 -0.312,0.3309 -0.47,0.4963 -2.741,2.7975 -2.873,7.2304 -0.304,10.1894 0.752,0.869 1.135,1.485 1.319,1.846 0.354,0.692 0.553,1.395 0.602,2.151 0.045,0.681 -0.038,1.636 -0.696,2.339 -0.481,0.515 -1.259,0.823 -2.075,0.823 z m -50.2032,-6.531 c -0.6505,0 -1.2521,-0.369 -1.5679,-0.959 -0.3121,-0.575 -0.2783,-1.278 0.0865,-1.831 0.3083,-0.466 0.7444,-0.917 1.3009,-1.339 1.7334,-1.316 5.0121,-2.579 7.4937,-3.252 0.0301,-0.0075 0.0564,-0.015 0.0827,-0.0226 -0.015,0.0264 -0.0338,0.0564 -0.0489,0.0828 -1.3122,2.2068 -3.414,5.0238 -5.1399,6.3318 -0.5565,0.421 -1.1054,0.722 -1.6393,0.895 -0.188,0.06 -0.3798,0.09 -0.5678,0.09 z M 128.081,70.9948 c -1.937,0 -3.407,-0.1316 -3.471,-0.1354 -0.004,0 -0.011,0 -0.015,0 0.098,-0.0714 0.196,-0.1466 0.293,-0.2218 2.162,-1.7371 5.588,-4.042 8.114,-4.8241 0.719,-0.2218 1.392,-0.3346 2.005,-0.3346 0.063,0 0.127,0 0.191,0 0.899,0.0338 1.681,0.6354 1.948,1.5002 0.267,0.8611 -0.041,1.8048 -0.767,2.3387 -0.534,0.3948 -1.203,0.7182 -1.997,0.9626 -1.045,0.3234 -2.993,0.7106 -6.305,0.7106 z M 66.9618,56.7782 C 66.7663,56.7143 66.567,56.6579 66.364,56.609 c -0.9701,-0.2331 -4.3202,-1.1656 -6.6176,-3.2937 -0.6091,-0.564 -1.0716,-1.1468 -1.3837,-1.7334 -0.3609,-0.6843 -0.3459,-1.425 0.0489,-2.0793 0.3873,-0.6392 1.1017,-1.0528 1.8198,-1.0528 0.2933,0 0.5753,0.0602 0.8611,0.1843 0.6053,0.2632 1.2257,0.6843 1.8311,1.2445 2.1808,2.0229 3.3539,5.0084 3.7562,6.1965 0.0828,0.2407 0.173,0.4738 0.2783,0.7031 z"
     fill="#1e6188"
     id="path129" />
  <path
     d="m 108.22,112.524 c -0.763,0 -1.519,-0.244 -2.075,-0.669 -0.557,-0.425 -1.019,-0.997 -1.399,-1.745 -0.241,-0.466 -0.62,-1.323 -1.083,-2.767 -1.004,-3.151 -3.929,-5.234 -7.1588,-5.234 -0.3384,0 -0.6806,0.022 -1.0228,0.071 -1.0866,0.151 -2.2033,0.226 -3.3163,0.226 -0.2068,0 -0.4173,0 -0.6241,-0.008 -0.0602,0 -0.1241,0 -0.1843,0 -2.8989,0 -5.546,1.67 -6.7943,4.298 -0.0902,0.192 -0.1918,0.376 -0.297,0.545 -0.3986,0.632 -1.0491,0.997 -1.786,0.997 -1.0942,0 -2.0116,-0.813 -2.1357,-1.888 -0.0602,-0.511 -0.0376,-1.079 0.0601,-1.688 0.4437,-2.741 -0.6542,-5.5011 -2.8576,-7.1856 -0.297,-0.2256 -0.5903,-0.4624 -0.8798,-0.7068 -1.3649,-1.1468 -3.0794,-1.7597 -4.8354,-1.7597 -0.4173,0 -0.8384,0.0338 -1.2558,0.1053 -0.267,0.0451 -0.5339,0.1052 -0.7896,0.1767 0.1429,-0.2331 0.2707,-0.4738 0.391,-0.7219 0.94,-1.9966 0.9588,-4.3015 0.0489,-6.3131 -0.4662,-1.0265 -0.861,-2.0905 -1.1806,-3.1697 -0.9438,-3.2072 -3.8879,-5.3956 -7.2117,-5.3956 -0.0865,0 -0.173,0 -0.2632,0.0038 -0.1128,0.0038 -0.2256,0.0075 -0.3346,0.0075 h -0.0903 c -0.8234,-0.0075 -1.5529,-0.1241 -2.1733,-0.3497 -0.846,-0.3045 -1.4137,-1.1167 -1.4062,-2.0228 0.0075,-0.9024 0.5866,-1.7071 1.4401,-1.9966 0.6091,-0.2068 1.3197,-0.3121 2.1169,-0.3121 h 0.1052 c 0.1805,0 0.4099,0.0113 0.6505,0.0301 0.1843,0.015 0.3685,0.0188 0.5527,0.0188 3.1434,0 5.986,-1.9665 7.0688,-4.9632 0.4512,-1.2483 1.0115,-2.4703 1.662,-3.6284 1.1505,-2.053 1.2784,-4.527 0.3346,-6.6853 -0.015,-0.0338 -0.0301,-0.0714 -0.0489,-0.1053 0.0151,0.0038 0.0301,0.0113 0.0451,0.0151 0.7596,0.2444 1.5379,0.3647 2.3162,0.3647 1.5416,0 3.0682,-0.4738 4.3578,-1.3912 1.7221,-1.2258 3.6059,-2.2222 5.5912,-2.9629 2.0604,-0.767 3.681,-2.3951 4.4368,-4.4593 0.7557,-2.0643 0.5715,-4.3541 -0.5039,-6.268 -1.0866,-1.9326 -2.459,-4.8729 -2.8425,-7.8922 -0.1504,-1.207 -0.1241,-2.2974 0.0789,-3.2486 0.3196,-1.474 1.5529,-2.4666 3.0719,-2.4666 1.1995,0 2.241,0.6467 2.7787,1.7258 0.4361,0.8686 0.7332,1.9214 0.8836,3.1284 0.3985,3.1433 -0.3459,6.4822 -1.0378,8.7269 -0.6354,2.0567 -0.3572,4.2864 0.7595,6.1251 1.1168,1.8386 2.9704,3.1095 5.0873,3.493 1.2032,0.2181 2.3951,0.5302 3.5457,0.925 0.797,0.2744 1.624,0.4098 2.448,0.4098 1.398,0 2.782,-0.391 3.997,-1.1506 1.925,-1.2069 3.203,-3.2223 3.47,-5.4783 0.214,-1.8123 0.846,-5.264 2.64,-8.0464 0.582,-0.9061 1.225,-1.6356 1.91,-2.1657 0.515,-0.3986 1.064,-0.5941 1.684,-0.5941 0.824,0 1.692,0.4249 2.215,1.0829 0.526,0.6655 0.703,1.4964 0.5,2.3424 -0.199,0.8385 -0.598,1.7259 -1.184,2.632 -1.764,2.7373 -4.678,4.6775 -6.257,5.5874 -1.989,1.1468 -3.343,3.1434 -3.681,5.4144 -0.335,2.271 0.387,4.5722 1.959,6.2454 1.5,1.598 2.775,3.3915 3.79,5.3392 1.041,1.9965 2.921,3.4178 5.121,3.8803 0.233,0.0489 0.47,0.0865 0.707,0.1128 -0.241,0.1729 -0.47,0.3647 -0.692,0.5677 -1.605,1.4852 -2.485,3.5984 -2.41,5.7867 0.037,1.0302 0.007,2.0717 -0.09,3.0945 -0.264,2.7974 1.06,5.5121 3.425,7.0312 0.267,0.1692 0.508,0.3534 0.718,0.5452 0.677,0.6128 0.884,1.4889 0.557,2.3387 -0.331,0.8573 -1.068,1.3686 -1.974,1.3686 -0.045,0 -0.094,0 -0.139,-0.0037 -0.301,-0.0188 -0.621,-0.0677 -0.944,-0.1429 -0.579,-0.1391 -1.162,-0.2031 -1.741,-0.2031 -2.151,0 -4.234,0.925 -5.681,2.5944 -0.173,0.1993 -0.35,0.3948 -0.527,0.5904 -0.15,0.1616 -0.304,0.3233 -0.462,0.485 -2.745,2.805 -2.873,7.2452 -0.294,10.2042 0.854,0.978 1.121,1.497 1.298,1.843 0.353,0.692 0.552,1.395 0.601,2.154 0.045,0.681 -0.037,1.636 -0.695,2.339 -0.482,0.515 -1.26,0.823 -2.076,0.823 z m -50.2032,-6.531 c -0.6505,0 -1.2521,-0.369 -1.5679,-0.959 -0.3121,-0.575 -0.2783,-1.278 0.0865,-1.831 0.3083,-0.466 0.7444,-0.918 1.3009,-1.339 1.7334,-1.316 5.0121,-2.579 7.4899,-3.2483 0.0301,-0.0075 0.0564,-0.015 0.0865,-0.0225 -0.0188,0.0263 -0.0338,0.0564 -0.0489,0.0827 -1.3122,2.2071 -3.4103,5.0191 -5.1399,6.3321 -0.5565,0.421 -1.1092,0.722 -1.6393,0.895 -0.1918,0.06 -0.3798,0.09 -0.5678,0.09 z M 128.081,69.8668 c -1.941,0 -3.407,-0.1316 -3.471,-0.1354 -0.004,0 -0.011,0 -0.015,0 0.098,-0.0714 0.196,-0.1466 0.293,-0.2218 2.162,-1.7372 5.584,-4.0383 8.114,-4.8241 0.719,-0.2219 1.395,-0.3347 2.005,-0.3347 0.063,0 0.124,0 0.184,0 0.898,0.0339 1.684,0.6355 1.951,1.5003 0.267,0.8648 -0.041,1.8048 -0.763,2.3425 -0.534,0.3948 -1.203,0.7181 -1.997,0.9625 -1.045,0.3234 -2.993,0.7107 -6.305,0.7107 z M 66.9581,55.6502 c -0.1955,-0.0639 -0.3948,-0.1203 -0.5979,-0.1692 -0.97,-0.2331 -4.3164,-1.1656 -6.6176,-3.2938 -0.6091,-0.564 -1.0716,-1.1468 -1.3836,-1.7333 -0.361,-0.6843 -0.346,-1.4251 0.0488,-2.0793 0.3873,-0.6392 1.1017,-1.0528 1.8199,-1.0528 0.2933,0 0.5753,0.0602 0.861,0.1842 0.6054,0.2632 1.222,0.6844 1.8311,1.2446 2.1808,2.0229 3.354,5.0083 3.7563,6.2002 0.0827,0.2407 0.1729,0.4738 0.2782,0.7032 z"
     fill="#24bbe4"
     id="path131" />
  <path
     d="m 108.22,112.524 c -0.763,0 -1.519,-0.244 -2.075,-0.669 -0.557,-0.425 -1.019,-0.997 -1.399,-1.745 -0.241,-0.466 -0.62,-1.323 -1.083,-2.767 -1.004,-3.151 -3.929,-5.234 -7.1588,-5.234 -0.3384,0 -0.6806,0.022 -1.0228,0.071 -1.0866,0.151 -2.2033,0.226 -3.3163,0.226 -0.2068,0 -0.4173,0 -0.6241,-0.008 -0.0602,0 -0.1241,0 -0.1843,0 -2.8989,0 -5.546,1.67 -6.7943,4.298 -0.0902,0.192 -0.1918,0.376 -0.297,0.545 -0.3986,0.632 -1.0491,0.997 -1.786,0.997 -1.0942,0 -2.0116,-0.813 -2.1357,-1.888 -0.0602,-0.511 -0.0376,-1.079 0.0601,-1.688 0.4437,-2.741 -0.6542,-5.5011 -2.8576,-7.1856 -0.297,-0.2256 -0.5903,-0.4624 -0.8798,-0.7068 -1.3649,-1.1468 -3.0794,-1.7597 -4.8354,-1.7597 -0.4173,0 -0.8384,0.0338 -1.2558,0.1053 -0.267,0.0451 -0.5339,0.1052 -0.7896,0.1767 0.1429,-0.2331 0.2707,-0.4738 0.391,-0.7219 0.94,-1.9966 0.9588,-4.3015 0.0489,-6.3131 -0.4662,-1.0265 -0.861,-2.0905 -1.1806,-3.1697 -0.9438,-3.2072 -3.8879,-5.3956 -7.2117,-5.3956 -0.0865,0 -0.173,0 -0.2632,0.0038 -0.1128,0.0038 -0.2256,0.0075 -0.3346,0.0075 h -0.0903 c -0.8234,-0.0075 -1.5529,-0.1241 -2.1733,-0.3497 -0.846,-0.3045 -1.4137,-1.1167 -1.4062,-2.0228 0.0075,-0.9024 0.5866,-1.7071 1.4401,-1.9966 0.6091,-0.2068 1.3197,-0.3121 2.1169,-0.3121 h 0.1052 c 0.1805,0 0.4099,0.0113 0.6505,0.0301 0.1843,0.015 0.3685,0.0188 0.5527,0.0188 3.1434,0 5.986,-1.9665 7.0688,-4.9632 0.4512,-1.2483 1.0115,-2.4703 1.662,-3.6284 1.1505,-2.053 1.2784,-4.527 0.3346,-6.6853 -0.015,-0.0338 -0.0301,-0.0714 -0.0489,-0.1053 0.0151,0.0038 0.0301,0.0113 0.0451,0.0151 0.7596,0.2444 1.5379,0.3647 2.3162,0.3647 1.5416,0 3.0682,-0.4738 4.3578,-1.3912 1.7221,-1.2258 3.6059,-2.2222 5.5912,-2.9629 2.0604,-0.767 3.681,-2.3951 4.4368,-4.4593 0.7557,-2.0643 0.5715,-4.3541 -0.5039,-6.268 -1.0866,-1.9326 -2.459,-4.8729 -2.8425,-7.8922 -0.1504,-1.207 -0.1241,-2.2974 0.0789,-3.2486 0.3196,-1.474 1.5529,-2.4666 3.0719,-2.4666 1.1995,0 2.241,0.6467 2.7787,1.7258 0.4361,0.8686 0.7332,1.9214 0.8836,3.1284 0.3985,3.1433 -0.3459,6.4822 -1.0378,8.7269 -0.6354,2.0567 -0.3572,4.2864 0.7595,6.1251 1.1168,1.8386 2.9704,3.1095 5.0873,3.493 1.2032,0.2181 2.3951,0.5302 3.5457,0.925 0.797,0.2744 1.624,0.4098 2.448,0.4098 1.398,0 2.782,-0.391 3.997,-1.1506 1.925,-1.2069 3.203,-3.2223 3.47,-5.4783 0.214,-1.8123 0.846,-5.264 2.64,-8.0464 0.582,-0.9061 1.225,-1.6356 1.91,-2.1657 0.515,-0.3986 1.064,-0.5941 1.684,-0.5941 0.824,0 1.692,0.4249 2.215,1.0829 0.526,0.6655 0.703,1.4964 0.5,2.3424 -0.199,0.8385 -0.598,1.7259 -1.184,2.632 -1.764,2.7373 -4.678,4.6775 -6.257,5.5874 -1.989,1.1468 -3.343,3.1434 -3.681,5.4144 -0.335,2.271 0.387,4.5722 1.959,6.2454 1.5,1.598 2.775,3.3915 3.79,5.3392 1.041,1.9965 2.921,3.4178 5.121,3.8803 0.233,0.0489 0.47,0.0865 0.707,0.1128 -0.241,0.1729 -0.47,0.3647 -0.692,0.5677 -1.605,1.4852 -2.485,3.5984 -2.41,5.7867 0.037,1.0302 0.007,2.0717 -0.09,3.0945 -0.264,2.7974 1.06,5.5121 3.425,7.0312 0.267,0.1692 0.508,0.3534 0.718,0.5452 0.677,0.6128 0.884,1.4889 0.557,2.3387 -0.331,0.8573 -1.068,1.3686 -1.974,1.3686 -0.045,0 -0.094,0 -0.139,-0.0037 -0.301,-0.0188 -0.621,-0.0677 -0.944,-0.1429 -0.579,-0.1391 -1.162,-0.2031 -1.741,-0.2031 -2.151,0 -4.234,0.925 -5.681,2.5944 -0.173,0.1993 -0.35,0.3948 -0.527,0.5904 -0.15,0.1616 -0.304,0.3233 -0.462,0.485 -2.745,2.805 -2.873,7.2452 -0.294,10.2042 0.854,0.978 1.121,1.497 1.298,1.843 0.353,0.692 0.552,1.395 0.601,2.154 0.045,0.681 -0.037,1.636 -0.695,2.339 -0.482,0.515 -1.26,0.823 -2.076,0.823 z m -50.2032,-6.531 c -0.6505,0 -1.2521,-0.369 -1.5679,-0.959 -0.3121,-0.575 -0.2783,-1.278 0.0865,-1.831 0.3083,-0.466 0.7444,-0.918 1.3009,-1.339 1.7334,-1.316 5.0121,-2.579 7.4899,-3.2483 0.0301,-0.0075 0.0564,-0.015 0.0865,-0.0225 -0.0188,0.0263 -0.0338,0.0564 -0.0489,0.0827 -1.3122,2.2071 -3.4103,5.0191 -5.1399,6.3321 -0.5565,0.421 -1.1092,0.722 -1.6393,0.895 -0.1918,0.06 -0.3798,0.09 -0.5678,0.09 z M 128.081,69.8668 c -1.941,0 -3.407,-0.1316 -3.471,-0.1354 -0.004,0 -0.011,0 -0.015,0 0.098,-0.0714 0.196,-0.1466 0.293,-0.2218 2.162,-1.7372 5.584,-4.0383 8.114,-4.8241 0.719,-0.2219 1.395,-0.3347 2.005,-0.3347 0.063,0 0.124,0 0.184,0 0.898,0.0339 1.684,0.6355 1.951,1.5003 0.267,0.8648 -0.041,1.8048 -0.763,2.3425 -0.534,0.3948 -1.203,0.7181 -1.997,0.9625 -1.045,0.3234 -2.993,0.7107 -6.305,0.7107 z M 66.9581,55.6502 c -0.1955,-0.0639 -0.3948,-0.1203 -0.5979,-0.1692 -0.97,-0.2331 -4.3164,-1.1656 -6.6176,-3.2938 -0.6091,-0.564 -1.0716,-1.1468 -1.3836,-1.7333 -0.361,-0.6843 -0.346,-1.4251 0.0488,-2.0793 0.3873,-0.6392 1.1017,-1.0528 1.8199,-1.0528 0.2933,0 0.5753,0.0602 0.861,0.1842 0.6054,0.2632 1.222,0.6844 1.8311,1.2446 2.1808,2.0229 3.354,5.0083 3.7563,6.2002 0.0827,0.2407 0.1729,0.4738 0.2782,0.7032 z"
     fill="#24bbe4"
     id="path133" />
  <path
     d="m 57.0505,89.8399 c 3.0042,-1.4702 6.1363,-2.1884 9.3173,-2.9479 3.0305,-0.6843 6.0498,-1.2709 9.0879,-1.7484 7.5914,-1.1581 15.2618,-2.0717 22.9698,-1.8424 7.6515,0.2933 15.2465,1.7184 22.6955,3.3652 2.978,0.658 5.922,1.3837 8.881,2.1696 0.451,0.1203 0.718,0.5828 0.602,1.034 -0.121,0.4549 -0.594,0.7256 -1.046,0.5978 -11.592,-2.8501 -23.628,-5.0647 -35.5956,-4.0946 -5.9446,0.5339 -11.8778,1.5378 -17.6946,2.9027 -2.9102,0.6843 -5.8054,1.4363 -8.6292,2.3237 -2.6395,0.8723 -5.4294,1.7371 -7.7719,3.1546 -1.3047,0.861 -3.0644,0.5038 -3.9254,-0.8046 -0.9438,-1.4063 -0.4061,-3.3653 1.1129,-4.106 z"
     fill="#f5c720"
     id="path135" />
  <path
     d="m 70.109,73.3749 c -0.8047,0.2068 -2.3538,3.478 -1.9252,5.1474 0.5189,2.0342 4.8617,0.9701 5.3806,3.0043 0.4437,1.7333 -1.5341,5.091 -3.1847,5.5121 -1.6732,0.4249 -4.4067,-0.8723 -4.7038,-2.0417 -0.1541,-0.6053 0.831,-2.38 1.2333,-2.4816 0.2218,-0.0564 0.9513,0.2745 1.0002,0.4738 0.0676,0.2632 -0.2407,1.1581 -0.1091,1.6807 0.1128,0.4437 1.207,1.2822 1.692,1.1581 1.1694,-0.297 2.1019,-2.3613 1.8537,-3.3276 -0.4888,-1.9138 -4.8504,-1.0152 -5.5084,-3.5946 -0.5414,-2.1168 1.8988,-6.4296 3.5118,-6.8394 0.846,-0.2143 3.369,0.6655 3.6247,1.6732 0.1504,0.5828 -0.2068,1.9627 -0.5001,2.9178 -0.0752,0.2105 -0.1391,0.3797 -0.3008,0.4211 -0.3234,0.0827 -1.1769,-0.1504 -1.2671,-0.5151 -0.0376,-0.1429 0,-0.3234 0.0413,-0.5904 0.1016,-0.7783 0.2106,-1.6205 0.0715,-2.162 -0.0715,-0.282 -0.6016,-0.5113 -0.9062,-0.4361 z"
     fill="#1e6188"
     id="path137" />
  <path
     d="m 76.0686,89.9715 c -0.0151,0.2782 -0.064,0.4963 -0.3497,0.5452 -0.3497,0.0602 -1.4138,-0.2481 -1.4815,-0.658 -0.1128,-0.6768 0.564,-8.5728 0.9664,-13.5773 0.015,-0.2971 0.297,-0.4926 0.5828,-0.5415 0.3496,-0.0601 1.425,0.8159 1.425,0.8159 0,0 1.0979,-1.2408 2.083,-1.4062 0.9626,-0.1617 2.4365,0.6881 2.6095,1.7146 0.1993,1.1881 0.1993,3.4479 -0.3234,5.2226 0.173,0.0338 0.2783,0.015 0.3196,0.0113 1.5191,-0.2557 2.147,-2.6584 2.147,-2.6584 0,0 0.1241,-0.3985 0.391,-0.4436 0.267,-0.0451 0.5452,0.0977 0.5866,0.3459 0.0413,0.2444 -0.1467,0.7633 -0.1467,0.7633 0,0 -0.8084,2.7297 -2.8388,3.0719 -0.3496,0.0602 -1.0227,0.0677 -1.0227,0.0677 -0.4963,0.9287 -1.2257,1.7446 -2.1281,1.8988 -1.2521,0.2105 -2.5305,-0.5039 -2.5305,-0.5039 0,0 -0.2482,4.6812 -0.282,5.343 z m 2.0379,-5.9521 c 0.391,-0.0639 0.767,-0.5941 0.9287,-0.8723 -0.3572,-0.109 -0.5377,-0.1842 -0.5715,-0.3873 -0.0677,-0.4098 0.5377,-1.3122 1.1129,-1.41 0.3008,-1.3385 0.3234,-3.3464 0.1918,-4.1247 -0.0677,-0.4098 -0.4775,-0.6994 -0.8046,-0.6467 -0.5114,0.0865 -1.6394,1.034 -1.8199,1.974 -0.2406,1.1994 -0.5301,3.6321 -0.3647,4.5947 0.094,0.5527 0.8761,0.9513 1.3273,0.8723 z"
     fill="#1e6188"
     id="path139" />
  <path
     d="m 85.9235,70.3406 c 0.3121,-0.0264 1.4627,0.4925 1.4927,0.8046 0.0151,0.1654 -0.015,0.3158 -0.0413,0.485 -0.1655,0.9551 -1.8123,9.9791 -1.7597,10.5581 0.0338,0.3948 0.3534,0.6768 0.5828,0.658 0.6204,-0.0564 1.5717,-1.7897 2.4177,-3.7487 0,0 0.1541,-0.391 0.4211,-0.4136 0.2707,-0.0226 0.5339,0.1391 0.5565,0.3873 0.0225,0.2481 -0.2031,0.7482 -0.2031,0.7482 -0.9512,2.1733 -1.7972,4.1511 -3.29,4.2864 -0.7031,0.064 -2.3688,-0.5602 -2.4364,-1.3047 -0.1204,-1.3273 1.6243,-10.6709 1.8424,-11.9831 0.0564,-0.3196 0.2293,-0.4587 0.4173,-0.4775 z"
     fill="#1e6188"
     id="path141" />
  <path
     d="m 98.6135,78.6689 c 0.2707,0 0.5189,0.1918 0.5151,0.4399 0,0.2482 -0.2782,0.7257 -0.2782,0.7257 -1.1618,2.068 -2.2222,3.9518 -3.7186,3.9367 -0.9363,-0.0075 -2.1771,-0.7708 -2.3388,-1.3536 0,0 -1.2596,1.3198 -2.3199,1.3085 -0.8121,-0.0075 -2.3387,-1.1242 -2.3312,-2.1018 0.0263,-2.7448 2.4628,-7.6742 4.1699,-7.6554 1.1242,0.0113 2.5079,1.0227 2.5079,1.0227 0.5414,0.0038 1.5792,0.0978 1.5754,0.6167 -0.0075,0.6429 -1.504,5.1662 -1.5153,6.204 -0.0037,0.4361 0.2632,0.7106 0.4926,0.7106 0.6242,0.0075 1.7409,-1.6281 2.7786,-3.4893 0,0 0.1918,-0.3722 0.4588,-0.3684 z m -5.5422,-3.2561 c -1.1243,-0.0113 -2.7636,4.072 -2.7824,6.0686 -0.0038,0.4775 0.3459,0.8761 0.6993,0.8798 0.4174,0 1.2333,-0.5903 1.8274,-1.7935 0.4249,-0.8685 1.2859,-3.8765 1.2897,-4.4593 0,-0.3309 -0.6994,-0.6919 -1.034,-0.6956 z"
     fill="#1e6188"
     id="path143" />
  <path
     d="m 100.057,84.1022 c -1.4247,-0.1504 -3.3648,-2.8012 -3.252,-3.8766 0.1052,-1.0152 1.4701,-1.2671 1.4701,-1.2671 0,0 2.3309,-3.2449 3.1549,-4.3315 0.146,-0.2143 0.421,-0.4362 0.71,-0.4061 0.267,0.0301 0.952,0.6843 0.914,1.0566 -0.21,2.0078 0.485,4.1284 0.32,5.6813 -0.083,0.7859 -0.861,1.6018 -0.861,1.6018 0.932,-0.3196 1.895,-0.91 3.105,-2.6621 0,0 0.226,-0.3535 0.493,-0.3234 0.267,0.0301 0.496,0.2407 0.47,0.4888 -0.026,0.2482 -0.346,0.6956 -0.346,0.6956 -1.357,1.9477 -3.685,3.6059 -6.189,3.3427 z M 98.7564,80.767 c -0.0902,0.8686 0.6354,1.9289 1.0678,1.9741 0.7028,0.0752 1.3048,-0.8874 1.3838,-1.6319 0.158,-1.489 -0.203,-3.0531 -0.083,-4.1698 0,0 -2.2633,2.835 -2.3686,3.8276 z"
     fill="#1e6188"
     id="path145" />
  <path
     d="m 109.8,71.5137 c 0.308,0.0526 1.285,0.8573 1.233,1.1618 -0.03,0.1655 -0.094,0.3008 -0.166,0.4588 -0.767,1.6393 -1.575,3.3802 -1.575,3.3802 0,0 1.534,-0.8122 2.764,-0.5979 0.594,0.1016 1.473,1.1205 1.342,1.88 -0.166,0.9626 -2.241,4.7828 -2.429,5.8694 -0.068,0.3911 0.165,0.7482 0.391,0.7858 0.613,0.1053 1.981,-1.3235 3.305,-2.9967 0,0 0.248,-0.3384 0.515,-0.2895 0.267,0.0451 0.481,0.2745 0.436,0.5189 -0.045,0.2444 -0.391,0.673 -0.391,0.673 -1.481,1.8537 -2.809,3.5457 -4.282,3.29 -0.696,-0.1203 -2.144,-1.1505 -2.016,-1.8913 0.226,-1.3122 2.181,-5.0459 2.316,-5.8242 0.061,-0.3497 -0.255,-0.7181 -0.522,-0.767 -0.493,-0.0865 -1.854,0.4587 -2.271,1.2972 -0.854,1.6469 -2.418,5.1963 -2.674,5.8054 -0.109,0.2557 -0.225,0.4475 -0.511,0.3986 -0.35,-0.0602 -1.252,-0.7031 -1.181,-1.113 0.139,-0.7971 4.317,-9.9339 5.189,-11.6823 0.135,-0.2933 0.342,-0.3835 0.527,-0.3534 z"
     fill="#1e6188"
     id="path147" />
  <path
     d="m 116.376,83.7488 c 0.466,0.1052 1.139,0.6204 1.038,1.0678 -0.158,0.6881 -0.877,1.9778 -1.482,1.8387 -0.466,-0.1053 -1.181,-0.628 -1.079,-1.0754 0.154,-0.6881 0.955,-1.959 1.523,-1.8311 z m 6.723,-8.8811 -4.855,8.0689 c -0.101,0.1692 -0.248,0.2444 -0.428,0.2031 -0.286,-0.064 -0.872,-0.3911 -0.801,-0.6919 0.023,-0.1015 0.128,-0.376 0.203,-0.5076 l 4.076,-8.5841 c 0.071,-0.1316 0.271,-0.2594 0.515,-0.203 0.263,0.0601 0.842,0.4249 1.331,0.8121 0.18,0.1467 0.244,0.2482 0.207,0.4099 -0.038,0.1617 -0.105,0.2745 -0.241,0.5001 z"
     fill="#1e6188"
     id="path149" />
  <path
     d="m 70.109,72.6229 c -0.8047,0.2068 -2.3538,3.478 -1.9252,5.1475 0.5189,2.0341 4.8617,0.97 5.3806,3.0042 0.4437,1.7334 -1.5341,5.091 -3.1847,5.5122 -1.6732,0.4248 -4.4067,-0.8724 -4.7038,-2.0417 -0.1541,-0.6054 0.831,-2.3801 1.2333,-2.4816 0.2218,-0.0564 0.9513,0.2745 1.0002,0.4737 0.0676,0.2632 -0.2407,1.1581 -0.1091,1.6808 0.1128,0.4436 1.207,1.2821 1.692,1.158 1.1694,-0.297 2.1019,-2.3612 1.8537,-3.3276 -0.4888,-1.9138 -4.8504,-1.0152 -5.5084,-3.5945 -0.5414,-2.1169 1.8988,-6.4296 3.5118,-6.8395 0.846,-0.2143 3.369,0.6656 3.6247,1.6732 0.1504,0.5828 -0.2068,1.9628 -0.5001,2.9178 -0.0752,0.2106 -0.1391,0.3798 -0.3008,0.4211 -0.3234,0.0827 -1.1769,-0.1504 -1.2671,-0.5151 -0.0376,-0.1429 0,-0.3234 0.0413,-0.5903 0.1016,-0.7783 0.2106,-1.6206 0.0715,-2.162 -0.0715,-0.282 -0.6016,-0.5114 -0.9062,-0.4362 z"
     fill="#ffffff"
     id="path151" />
  <path
     d="m 76.0686,89.2196 c -0.0151,0.2782 -0.064,0.4963 -0.3497,0.5452 -0.3497,0.0601 -1.4138,-0.2482 -1.4815,-0.658 -0.1128,-0.6768 0.564,-8.5728 0.9664,-13.5774 0.015,-0.297 0.297,-0.4926 0.5828,-0.5414 0.3496,-0.0602 1.425,0.8159 1.425,0.8159 0,0 1.0979,-1.2408 2.083,-1.4063 0.9626,-0.1616 2.4365,0.6881 2.6095,1.7146 0.1993,1.1882 0.1993,3.4479 -0.3234,5.2226 0.173,0.0339 0.2783,0.0151 0.3196,0.0113 1.5191,-0.2557 2.147,-2.6583 2.147,-2.6583 0,0 0.1241,-0.3986 0.391,-0.4437 0.267,-0.0451 0.5452,0.0978 0.5866,0.3459 0.0413,0.2444 -0.1467,0.7633 -0.1467,0.7633 0,0 -0.8084,2.7298 -2.8388,3.0719 -0.3496,0.0602 -1.0227,0.0677 -1.0227,0.0677 -0.4963,0.9287 -1.2257,1.7447 -2.1281,1.8988 -1.2521,0.2106 -2.5305,-0.5038 -2.5305,-0.5038 0,0 -0.2482,4.6812 -0.282,5.3429 z m 2.0379,-5.9521 c 0.391,-0.0639 0.767,-0.5941 0.9287,-0.8723 -0.3572,-0.1091 -0.5377,-0.1843 -0.5715,-0.3873 -0.0677,-0.4099 0.5377,-1.3123 1.1129,-1.41 0.3008,-1.3386 0.3234,-3.3464 0.1918,-4.1247 -0.0677,-0.4099 -0.4775,-0.6994 -0.8046,-0.6468 -0.5114,0.0865 -1.6394,1.034 -1.8199,1.974 -0.2406,1.1995 -0.5301,3.6322 -0.3647,4.5948 0.094,0.5527 0.8761,0.9512 1.3273,0.8723 z"
     fill="#ffffff"
     id="path153" />
  <path
     d="m 85.9235,69.5886 c 0.3121,-0.0263 1.4627,0.4926 1.4927,0.8047 0.0151,0.1654 -0.015,0.3158 -0.0413,0.485 -0.1655,0.955 -1.8123,9.979 -1.7597,10.5581 0.0338,0.3948 0.3534,0.6768 0.5828,0.658 0.6204,-0.0564 1.5717,-1.7898 2.4177,-3.7487 0,0 0.1541,-0.3911 0.4211,-0.4136 0.2707,-0.0226 0.5339,0.1391 0.5565,0.3872 0.0225,0.2482 -0.2031,0.7483 -0.2031,0.7483 -0.9512,2.1733 -1.7972,4.151 -3.29,4.2864 -0.7031,0.0639 -2.3688,-0.5603 -2.4364,-1.3047 -0.1204,-1.3273 1.6243,-10.6709 1.8424,-11.9832 0.0564,-0.3196 0.2293,-0.4587 0.4173,-0.4775 z"
     fill="#ffffff"
     id="path155" />
  <path
     d="m 98.6135,77.917 c 0.2707,0 0.5189,0.1917 0.5151,0.4399 0,0.2482 -0.2782,0.7257 -0.2782,0.7257 -1.1618,2.068 -2.2222,3.9517 -3.7186,3.9367 -0.9363,-0.0075 -2.1771,-0.7708 -2.3388,-1.3536 0,0 -1.2596,1.3198 -2.3199,1.3085 -0.8121,-0.0075 -2.3387,-1.1243 -2.3312,-2.1019 0.0263,-2.7448 2.4628,-7.6741 4.1699,-7.6553 1.1242,0.0113 2.5079,1.0227 2.5079,1.0227 0.5414,0.0037 1.5792,0.0978 1.5754,0.6166 -0.0075,0.643 -1.504,5.1663 -1.5153,6.204 -0.0037,0.4362 0.2632,0.7107 0.4926,0.7107 0.6242,0.0075 1.7409,-1.6281 2.7786,-3.4893 0,0 0.1918,-0.3723 0.4588,-0.3685 z m -5.5422,-3.2562 c -1.1243,-0.0113 -2.7636,4.0721 -2.7824,6.0687 -0.0038,0.4775 0.3459,0.876 0.6993,0.8798 0.4174,0 1.2333,-0.5903 1.8274,-1.7935 0.4249,-0.8686 1.2859,-3.8766 1.2897,-4.4594 0,-0.3309 -0.6994,-0.6918 -1.034,-0.6956 z"
     fill="#ffffff"
     id="path157" />
  <path
     d="m 100.057,83.3502 c -1.4247,-0.1504 -3.3648,-2.8012 -3.252,-3.8765 0.1052,-1.0152 1.4701,-1.2672 1.4701,-1.2672 0,0 2.3309,-3.2448 3.1549,-4.3315 0.146,-0.2143 0.421,-0.4361 0.71,-0.4061 0.267,0.0301 0.952,0.6844 0.914,1.0566 -0.21,2.0078 0.485,4.1285 0.32,5.6814 -0.083,0.7858 -0.861,1.6017 -0.861,1.6017 0.932,-0.3196 1.895,-0.9099 3.105,-2.6621 0,0 0.226,-0.3534 0.493,-0.3233 0.267,0.0301 0.496,0.2406 0.47,0.4888 -0.026,0.2481 -0.346,0.6956 -0.346,0.6956 -1.357,1.9477 -3.685,3.6058 -6.189,3.3426 z m -1.3006,-3.3351 c -0.0902,0.8686 0.6354,1.9289 1.0678,1.974 0.7028,0.0752 1.3048,-0.8874 1.3838,-1.6318 0.158,-1.489 -0.203,-3.0532 -0.083,-4.1699 0,0 -2.2633,2.8351 -2.3686,3.8277 z"
     fill="#ffffff"
     id="path159" />
  <path
     d="m 109.8,70.7617 c 0.308,0.0527 1.285,0.8573 1.233,1.1619 -0.03,0.1654 -0.094,0.3008 -0.166,0.4587 -0.767,1.6394 -1.575,3.3802 -1.575,3.3802 0,0 1.534,-0.8121 2.764,-0.5978 0.594,0.1015 1.473,1.1205 1.342,1.88 -0.166,0.9626 -2.241,4.7827 -2.429,5.8694 -0.068,0.391 0.165,0.7482 0.391,0.7858 0.613,0.1053 1.981,-1.3235 3.305,-2.9967 0,0 0.248,-0.3384 0.515,-0.2895 0.267,0.0451 0.481,0.2744 0.436,0.5188 -0.045,0.2444 -0.391,0.6731 -0.391,0.6731 -1.481,1.8537 -2.809,3.5457 -4.282,3.29 -0.696,-0.1203 -2.144,-1.1506 -2.016,-1.8913 0.226,-1.3122 2.181,-5.0459 2.316,-5.8242 0.061,-0.3497 -0.255,-0.7182 -0.522,-0.7671 -0.493,-0.0865 -1.854,0.4587 -2.271,1.2972 -0.854,1.6469 -2.418,5.1963 -2.674,5.8055 -0.109,0.2556 -0.225,0.4474 -0.511,0.3985 -0.35,-0.0601 -1.252,-0.7031 -1.181,-1.1129 0.139,-0.7972 4.317,-9.934 5.189,-11.6824 0.135,-0.2932 0.342,-0.3835 0.527,-0.3534 z"
     fill="#ffffff"
     id="path161" />
  <path
     d="m 116.376,82.9968 c 0.466,0.1053 1.139,0.6204 1.038,1.0679 -0.158,0.688 -0.877,1.9777 -1.482,1.8386 -0.466,-0.1053 -1.181,-0.6279 -1.079,-1.0754 0.154,-0.688 0.955,-1.9589 1.523,-1.8311 z m 6.723,-8.8811 -4.855,8.069 c -0.101,0.1692 -0.248,0.2444 -0.428,0.203 -0.286,-0.0639 -0.872,-0.391 -0.801,-0.6918 0.023,-0.1016 0.128,-0.376 0.203,-0.5076 l 4.076,-8.5841 c 0.071,-0.1316 0.271,-0.2595 0.515,-0.2031 0.263,0.0602 0.842,0.4249 1.331,0.8122 0.18,0.1466 0.244,0.2482 0.207,0.4098 -0.038,0.1617 -0.105,0.2745 -0.241,0.5001 z"
     fill="#ffffff"
     id="path163" />
</svg>
