<svg width="50" height="49" viewBox="0 0 50 49" fill="none" xmlns="http://www.w3.org/2000/svg">
<path d="M25.0427 48.5747C18.4173 48.5747 17.6362 48.5396 15.0508 48.4265C13.0346 48.3603 11.0445 47.9504 9.16611 47.2146C5.91625 45.9499 3.34647 43.3792 2.08298 40.1288C1.37551 38.2435 0.993905 36.2519 0.95453 34.2387C0.803711 31.6586 0.803711 30.813 0.803711 24.2389C0.803711 17.5947 0.838723 16.8191 0.95453 14.2471C0.994767 12.2367 1.37634 10.2477 2.08298 8.3651C3.3451 5.11044 5.91905 2.53748 9.17419 1.27658C11.0558 0.566139 13.0453 0.183542 15.0562 0.145433C17.6282 -2.7089e-07 18.4738 0 25.0427 0C31.7218 0 32.4894 0.0350114 35.0345 0.145433C37.0504 0.183865 39.0452 0.566408 40.9326 1.27658C44.1868 2.53891 46.7602 5.11138 48.0238 8.3651C48.7432 10.2751 49.1267 12.2952 49.1577 14.3359C49.3085 16.916 49.3085 17.759 49.3085 24.3304C49.3085 30.9018 49.2708 31.7637 49.1577 34.3141C49.1175 36.3292 48.7348 38.3227 48.0265 40.2096C46.7596 43.4621 44.186 46.0339 40.9326 47.2981C39.0479 48.0042 37.0574 48.3859 35.0453 48.4265C32.4732 48.5747 31.6303 48.5747 25.0427 48.5747ZM24.9511 4.26334C18.3634 4.26334 17.6793 4.29566 15.1073 4.41147C13.5722 4.43183 12.0518 4.71513 10.6124 5.24906C8.48678 6.06243 6.80479 7.73758 5.98275 9.85983C5.4447 11.315 5.16134 12.8519 5.14516 14.4033C5.00242 17.013 5.00242 17.6971 5.00242 24.2389C5.00242 30.7025 5.02666 31.4863 5.14516 34.0798C5.16929 35.6155 5.45245 37.1361 5.98275 38.5775C6.806 40.6984 8.4877 42.3722 10.6124 43.1856C12.0509 43.7231 13.5718 44.0064 15.1073 44.0231C17.7143 44.174 18.4011 44.174 24.9511 44.174C31.5576 44.174 32.2416 44.1416 34.7921 44.0231C36.3283 44.0046 37.8497 43.7212 39.2898 43.1856C41.4023 42.3652 43.0734 40.6951 43.8951 38.5829C44.4322 37.1266 44.7152 35.5888 44.7327 34.0367H44.7623C44.8782 31.462 44.8782 30.7753 44.8782 24.1958C44.8782 17.6163 44.8485 16.9241 44.7327 14.3521C44.7085 12.8182 44.4252 11.2994 43.8951 9.85983C43.0753 7.74453 41.4039 6.07129 39.2898 5.24906C37.85 4.71244 36.3283 4.42906 34.7921 4.41147C32.1878 4.26334 31.5064 4.26334 24.9511 4.26334ZM25.0427 36.6788C20.0061 36.682 15.464 33.6508 13.5341 28.9991C11.6043 24.3471 12.667 18.9906 16.2267 15.4279C19.7864 11.8652 25.1418 10.7978 29.7954 12.7236C34.449 14.6494 37.484 19.1891 37.4853 24.2254C37.4778 31.096 31.9131 36.6653 25.0427 36.6788ZM25.0427 16.1404C20.5803 16.1404 16.9629 19.7579 16.9629 24.22C16.9629 28.6824 20.5803 32.2996 25.0427 32.2996C29.5048 32.2996 33.1223 28.6824 33.1223 24.22C33.1118 19.7619 29.5005 16.1508 25.0427 16.1404ZM37.9701 14.2202C36.3687 14.2142 35.0746 12.9128 35.0776 11.3115C35.0805 9.71017 36.3795 8.4136 37.9809 8.4136C39.582 8.4136 40.8809 9.71014 40.8841 11.3115C40.8847 12.0841 40.5776 12.8251 40.0309 13.3709C39.4842 13.9167 38.7425 14.2223 37.9701 14.2202Z" fill="white"/>
</svg>
